{
   "accessors": [
      {
         "bufferView": 0,
         "byteOffset": 0,
         "componentType": 5126,
         "count": 36429,
         "max": [
            54.4796,
            36.8782,
            1557.89
         ],
         "min": [
            -38.4602,
            -47.6493,
            1416.08
         ],
         "type": "VEC3"
      },
      {
         "bufferView": 1,
         "byteOffset": 0,
         "componentType": 5126,
         "count": 36429,
         "type": "VEC3"
      },
      {
         "bufferView": 2,
         "byteOffset": 0,
         "componentType": 5125,
         "count": 221976,
         "type": "SCALAR"
      },
      {
         "bufferView": 3,
         "byteOffset": 0,
         "componentType": 5126,
         "count": 21568,
         "max": [
            61.5448,
            10.8643,
            1486.03
         ],
         "min": [
            -6.43066,
            -54.7335,
            1413.98
         ],
         "type": "VEC3"
      },
      {
         "bufferView": 4,
         "byteOffset": 0,
         "componentType": 5126,
         "count": 21568,
         "type": "VEC3"
      },
      {
         "bufferView": 5,
         "byteOffset": 0,
         "componentType": 5125,
         "count": 129642,
         "type": "SCALAR"
      },
      {
         "bufferView": 6,
         "byteOffset": 0,
         "componentType": 5126,
         "count": 4903,
         "max": [
            15.1151,
            26.9048,
            1546.07
         ],
         "min": [
            -13.6859,
            -34.7094,
            1474.09
         ],
         "type": "VEC3"
      },
      {
         "bufferView": 7,
         "byteOffset": 0,
         "componentType": 5126,
         "count": 4903,
         "type": "VEC3"
      },
      {
         "bufferView": 8,
         "byteOffset": 0,
         "componentType": 5125,
         "count": 29472,
         "type": "SCALAR"
      }
   ],
   "asset": {
      "generator": "Slicer 5.4.0",
      "version": "2.0"
   },
   "bufferViews": [
      {
         "buffer": 0,
         "byteLength": 437148,
         "byteOffset": 0,
         "target": 34962
      },
      {
         "buffer": 1,
         "byteLength": 437148,
         "byteOffset": 0,
         "target": 34962
      },
      {
         "buffer": 2,
         "byteLength": 887904,
         "byteOffset": 0,
         "target": 34963
      },
      {
         "buffer": 3,
         "byteLength": 258816,
         "byteOffset": 0,
         "target": 34962
      },
      {
         "buffer": 4,
         "byteLength": 258816,
         "byteOffset": 0,
         "target": 34962
      },
      {
         "buffer": 5,
         "byteLength": 518568,
         "byteOffset": 0,
         "target": 34963
      },
      {
         "buffer": 6,
         "byteLength": 58836,
         "byteOffset": 0,
         "target": 34962
      },
      {
         "buffer": 7,
         "byteLength": 58836,
         "byteOffset": 0,
         "target": 34962
      },
      {
         "buffer": 8,
         "byteLength": 117888,
         "byteOffset": 0,
         "target": 34963
      }
   ],
   "buffers": [
      {
         "byteLength": 437148,
         "uri": "data:application/octet-stream;base64,"
      },
      {
         "byteLength": 437148,
         "uri": "data:application/octet-stream;base64,"
      },
      {
         "byteLength": 887904,
         "uri": "data:application/octet-stream;base64,"
      },
      {
         "byteLength": 258816,
         "uri": "data:application/octet-stream;base64,"
      },
      {
         "byteLength": 258816,
         "uri": "data:application/octet-stream;base64,"
      },
      {
         "byteLength": 518568,
         "uri": "data:application/octet-stream;base64,"
      },
      {
         "byteLength": 58836,
         "uri": "data:application/octet-stream;base64,"
      },
      {
         "byteLength": 58836,
         "uri": "data:application/octet-stream;base64,"
      },
      {
         "byteLength": 117888,
         "uri": "data:application/octet-stream;base64,"
      }
   ],
   "cameras": [
      {
         "perspective": {
            "aspectRatio": 1.0,
            "yfov": 0.5235987755982988,
            "zfar": 1000.01,
            "znear": 0.01
         },
         "type": "perspective"
      }
   ],
   "materials": [
      {
         "pbrMetallicRoughness": {
            "baseColorFactor": [
               0.6431372549019608,
               0.10500200080032013,
               0.0,
               0.7
            ],
            "metallicFactor": 0.0,
            "roughnessFactor": 1.0
         },
         "alphaMode": "BLEND"
      },
      {
         "pbrMetallicRoughness": {
            "baseColorFactor": [
               0.7529411764705882,
               0.6235294117647059,
               0.5823529411764706,
               0.5
            ],
            "metallicFactor": 0.0,
            "roughnessFactor": 1.0
         },
         "alphaMode": "BLEND"
      },
      {
         "pbrMetallicRoughness": {
            "baseColorFactor": [
               0.908082257293161,
               0.9215686274509803,
               0.0,
               1.0
            ],
            "metallicFactor": 0.0,
            "roughnessFactor": 1.0
         }
      }
   ],
   "meshes": [
      {
         "name": "left ventricle of heart",
         "primitives": [
            {
               "attributes": {
                  "NORMAL": 1,
                  "POSITION": 0
               },
               "indices": 2,
               "material": 0,
               "mode": 4
            }
         ]
      },
      {
         "name": "muscle",
         "primitives": [
            {
               "attributes": {
                  "NORMAL": 4,
                  "POSITION": 3
               },
               "indices": 5,
               "material": 1,
               "mode": 4
            }
         ]
      },
      {
         "name": "calcification",
         "primitives": [
            {
               "attributes": {
                  "NORMAL": 7,
                  "POSITION": 6
               },
               "indices": 8,
               "material": 2,
               "mode": 4
            }
         ]
      }
   ],
   "nodes": [
      {
         "mesh": 0,
         "name": "left ventricle of heart"
      },
      {
         "mesh": 1,
         "name": "muscle"
      },
      {
         "mesh": 2,
         "name": "calcification"
      },
      {
         "name": "AS + calcification_Models",
         "children": [
            0,
            1,
            2
         ],
         "matrix": [
            1.0,
            0.0,
            0.0,
            0.0,
            0.0,
            0.0,
            -1.0,
            0.0,
            0.0,
            1.0,
            0.0,
            0.0,
            0.0,
            0.0,
            0.0,
            1.0
         ]
      }
   ],
   "scene": 0,
   "scenes": [
      {
         "name": "Layer 0",
         "nodes": [
            3
         ]
      }
   ]
}