{
   "accessors": [
      {
         "bufferView": 0,
         "byteOffset": 0,
         "componentType": 5126,
         "count": 9963,
         "max": [
            57.827,
            16.918,
            1124.52
         ],
         "min": [
            17.7991,
            -18.7884,
            1090.31
         ],
         "type": "VEC3"
      },
      {
         "bufferView": 1,
         "byteOffset": 0,
         "componentType": 5126,
         "count": 9963,
         "type": "VEC3"
      },
      {
         "bufferView": 2,
         "byteOffset": 0,
         "componentType": 5125,
         "count": 59682,
         "type": "SCALAR"
      },
      {
         "bufferView": 3,
         "byteOffset": 0,
         "componentType": 5126,
         "count": 2741,
         "max": [
            44.7636,
            29.5367,
            1129.1
         ],
         "min": [
            14.3967,
            7.90464,
            1101.73
         ],
         "type": "VEC3"
      },
      {
         "bufferView": 4,
         "byteOffset": 0,
         "componentType": 5126,
         "count": 2741,
         "type": "VEC3"
      },
      {
         "bufferView": 5,
         "byteOffset": 0,
         "componentType": 5125,
         "count": 16374,
         "type": "SCALAR"
      },
      {
         "bufferView": 6,
         "byteOffset": 0,
         "componentType": 5126,
         "count": 251,
         "max": [
            41.4103,
            13.7189,
            1115.16
         ],
         "min": [
            31.9915,
            7.15119,
            1103.31
         ],
         "type": "VEC3"
      },
      {
         "bufferView": 7,
         "byteOffset": 0,
         "componentType": 5126,
         "count": 251,
         "type": "VEC3"
      },
      {
         "bufferView": 8,
         "byteOffset": 0,
         "componentType": 5125,
         "count": 1506,
         "type": "SCALAR"
      },
      {
         "bufferView": 9,
         "byteOffset": 0,
         "componentType": 5126,
         "count": 1261,
         "max": [
            47.9636,
            15.9465,
            1115.6
         ],
         "min": [
            31.1032,
            -0.440629,
            1097.03
         ],
         "type": "VEC3"
      },
      {
         "bufferView": 10,
         "byteOffset": 0,
         "componentType": 5126,
         "count": 1261,
         "type": "VEC3"
      },
      {
         "bufferView": 11,
         "byteOffset": 0,
         "componentType": 5125,
         "count": 7566,
         "type": "SCALAR"
      },
      {
         "bufferView": 12,
         "byteOffset": 0,
         "componentType": 5126,
         "count": 227,
         "max": [
            37.1621,
            10.6247,
            1118.51
         ],
         "min": [
            29.1778,
            2.50746,
            1109.35
         ],
         "type": "VEC3"
      },
      {
         "bufferView": 13,
         "byteOffset": 0,
         "componentType": 5126,
         "count": 227,
         "type": "VEC3"
      },
      {
         "bufferView": 14,
         "byteOffset": 0,
         "componentType": 5125,
         "count": 1362,
         "type": "SCALAR"
      },
      {
         "bufferView": 15,
         "byteOffset": 0,
         "componentType": 5126,
         "count": 2965,
         "max": [
            42.156,
            36.8691,
            1153.77
         ],
         "min": [
            17.0733,
            -4.78485,
            1085.16
         ],
         "type": "VEC3"
      },
      {
         "bufferView": 16,
         "byteOffset": 0,
         "componentType": 5126,
         "count": 2965,
         "type": "VEC3"
      },
      {
         "bufferView": 17,
         "byteOffset": 0,
         "componentType": 5125,
         "count": 17790,
         "type": "SCALAR"
      },
      {
         "bufferView": 18,
         "byteOffset": 0,
         "componentType": 5126,
         "count": 4187,
         "max": [
            34.7192,
            25.6806,
            1127.61
         ],
         "min": [
            8.77507,
            -10.4269,
            1085.3
         ],
         "type": "VEC3"
      },
      {
         "bufferView": 19,
         "byteOffset": 0,
         "componentType": 5126,
         "count": 4187,
         "type": "VEC3"
      },
      {
         "bufferView": 20,
         "byteOffset": 0,
         "componentType": 5125,
         "count": 25146,
         "type": "SCALAR"
      },
      {
         "bufferView": 21,
         "byteOffset": 0,
         "componentType": 5126,
         "count": 356,
         "max": [
            34.365,
            4.86653,
            1113.64
         ],
         "min": [
            21.3404,
            -2.38793,
            1097.33
         ],
         "type": "VEC3"
      },
      {
         "bufferView": 22,
         "byteOffset": 0,
         "componentType": 5126,
         "count": 356,
         "type": "VEC3"
      },
      {
         "bufferView": 23,
         "byteOffset": 0,
         "componentType": 5125,
         "count": 2136,
         "type": "SCALAR"
      },
      {
         "bufferView": 24,
         "byteOffset": 0,
         "componentType": 5126,
         "count": 4139,
         "max": [
            55.2765,
            3.28387,
            1122.64
         ],
         "min": [
            20.0526,
            -16.0477,
            1093.3
         ],
         "type": "VEC3"
      },
      {
         "bufferView": 25,
         "byteOffset": 0,
         "componentType": 5126,
         "count": 4139,
         "type": "VEC3"
      },
      {
         "bufferView": 26,
         "byteOffset": 0,
         "componentType": 5125,
         "count": 24984,
         "type": "SCALAR"
      },
      {
         "bufferView": 27,
         "byteOffset": 0,
         "componentType": 5126,
         "count": 500,
         "max": [
            40.141,
            4.31511,
            1126.51
         ],
         "min": [
            25.8145,
            -8.33859,
            1115.35
         ],
         "type": "VEC3"
      },
      {
         "bufferView": 28,
         "byteOffset": 0,
         "componentType": 5126,
         "count": 500,
         "type": "VEC3"
      },
      {
         "bufferView": 29,
         "byteOffset": 0,
         "componentType": 5125,
         "count": 3000,
         "type": "SCALAR"
      },
      {
         "bufferView": 30,
         "byteOffset": 0,
         "componentType": 5126,
         "count": 2598,
         "max": [
            46.1612,
            30.1075,
            1135.53
         ],
         "min": [
            18.1353,
            -6.93046,
            1117.54
         ],
         "type": "VEC3"
      },
      {
         "bufferView": 31,
         "byteOffset": 0,
         "componentType": 5126,
         "count": 2598,
         "type": "VEC3"
      },
      {
         "bufferView": 32,
         "byteOffset": 0,
         "componentType": 5125,
         "count": 15552,
         "type": "SCALAR"
      }
   ],
   "asset": {
      "generator": "Slicer 5.4.0",
      "version": "2.0"
   },
   "bufferViews": [
      {
         "buffer": 0,
         "byteLength": 119556,
         "byteOffset": 0,
         "target": 34962
      },
      {
         "buffer": 1,
         "byteLength": 119556,
         "byteOffset": 0,
         "target": 34962
      },
      {
         "buffer": 2,
         "byteLength": 238728,
         "byteOffset": 0,
         "target": 34963
      },
      {
         "buffer": 3,
         "byteLength": 32892,
         "byteOffset": 0,
         "target": 34962
      },
      {
         "buffer": 4,
         "byteLength": 32892,
         "byteOffset": 0,
         "target": 34962
      },
      {
         "buffer": 5,
         "byteLength": 65496,
         "byteOffset": 0,
         "target": 34963
      },
      {
         "buffer": 6,
         "byteLength": 3012,
         "byteOffset": 0,
         "target": 34962
      },
      {
         "buffer": 7,
         "byteLength": 3012,
         "byteOffset": 0,
         "target": 34962
      },
      {
         "buffer": 8,
         "byteLength": 6024,
         "byteOffset": 0,
         "target": 34963
      },
      {
         "buffer": 9,
         "byteLength": 15132,
         "byteOffset": 0,
         "target": 34962
      },
      {
         "buffer": 10,
         "byteLength": 15132,
         "byteOffset": 0,
         "target": 34962
      },
      {
         "buffer": 11,
         "byteLength": 30264,
         "byteOffset": 0,
         "target": 34963
      },
      {
         "buffer": 12,
         "byteLength": 2724,
         "byteOffset": 0,
         "target": 34962
      },
      {
         "buffer": 13,
         "byteLength": 2724,
         "byteOffset": 0,
         "target": 34962
      },
      {
         "buffer": 14,
         "byteLength": 5448,
         "byteOffset": 0,
         "target": 34963
      },
      {
         "buffer": 15,
         "byteLength": 35580,
         "byteOffset": 0,
         "target": 34962
      },
      {
         "buffer": 16,
         "byteLength": 35580,
         "byteOffset": 0,
         "target": 34962
      },
      {
         "buffer": 17,
         "byteLength": 71160,
         "byteOffset": 0,
         "target": 34963
      },
      {
         "buffer": 18,
         "byteLength": 50244,
         "byteOffset": 0,
         "target": 34962
      },
      {
         "buffer": 19,
         "byteLength": 50244,
         "byteOffset": 0,
         "target": 34962
      },
      {
         "buffer": 20,
         "byteLength": 100584,
         "byteOffset": 0,
         "target": 34963
      },
      {
         "buffer": 21,
         "byteLength": 4272,
         "byteOffset": 0,
         "target": 34962
      },
      {
         "buffer": 22,
         "byteLength": 4272,
         "byteOffset": 0,
         "target": 34962
      },
      {
         "buffer": 23,
         "byteLength": 8544,
         "byteOffset": 0,
         "target": 34963
      },
      {
         "buffer": 24,
         "byteLength": 49668,
         "byteOffset": 0,
         "target": 34962
      },
      {
         "buffer": 25,
         "byteLength": 49668,
         "byteOffset": 0,
         "target": 34962
      },
      {
         "buffer": 26,
         "byteLength": 99936,
         "byteOffset": 0,
         "target": 34963
      },
      {
         "buffer": 27,
         "byteLength": 6000,
         "byteOffset": 0,
         "target": 34962
      },
      {
         "buffer": 28,
         "byteLength": 6000,
         "byteOffset": 0,
         "target": 34962
      },
      {
         "buffer": 29,
         "byteLength": 12000,
         "byteOffset": 0,
         "target": 34963
      },
      {
         "buffer": 30,
         "byteLength": 31176,
         "byteOffset": 0,
         "target": 34962
      },
      {
         "buffer": 31,
         "byteLength": 31176,
         "byteOffset": 0,
         "target": 34962
      },
      {
         "buffer": 32,
         "byteLength": 62208,
         "byteOffset": 0,
         "target": 34963
      }
   ],
   "buffers": [
      {
         "byteLength": 119556,
         "uri": "data:application/octet-stream;base64,"
      },
      {
         "byteLength": 119556,
         "uri": "data:application/octet-stream;base64,"
      },
      {
         "byteLength": 238728,
         "uri": "data:application/octet-stream;base64,"
      },
      {
         "byteLength": 32892,
         "uri": "data:application/octet-stream;base64,"
      },
      {
         "byteLength": 32892,
         "uri": "data:application/octet-stream;base64,"
      },
      {
         "byteLength": 65496,
         "uri": "data:application/octet-stream;base64,"
      },
      {
         "byteLength": 3012,
         "uri": "data:application/octet-stream;base64,"
      },
      {
         "byteLength": 3012,
         "uri": "data:application/octet-stream;base64,"
      },
      {
         "byteLength": 6024,
         "uri": "data:application/octet-stream;base64,"
      },
      {
         "byteLength": 15132,
         "uri": "data:application/octet-stream;base64,"
      },
      {
         "byteLength": 15132,
         "uri": "data:application/octet-stream;base64,"
      },
      {
         "byteLength": 30264,
         "uri": "data:application/octet-stream;base64,"
      },
      {
         "byteLength": 2724,
         "uri": "data:application/octet-stream;base64,"
      },
      {
         "byteLength": 2724,
         "uri": "data:application/octet-stream;base64,"
      },
      {
         "byteLength": 5448,
         "uri": "data:application/octet-stream;base64,"
      },
      {
         "byteLength": 35580,
         "uri": "data:application/octet-stream;base64,"
      },
      {
         "byteLength": 35580,
         "uri": "data:application/octet-stream;base64,"
      },
      {
         "byteLength": 71160,
         "uri": "data:application/octet-stream;base64,"
      },
      {
         "byteLength": 50244,
         "uri": "data:application/octet-stream;base64,"
      },
      {
         "byteLength": 50244,
         "uri": "data:application/octet-stream;base64,"
      },
      {
         "byteLength": 100584,
         "uri": "data:application/octet-stream;base64,"
      },
      {
         "byteLength": 4272,
         "uri": "data:application/octet-stream;base64,"
      },
      {
         "byteLength": 4272,
         "uri": "data:application/octet-stream;base64,"
      },
      {
         "byteLength": 8544,
         "uri": "data:application/octet-stream;base64,"
      },
      {
         "byteLength": 49668,
         "uri": "data:application/octet-stream;base64,"
      },
      {
         "byteLength": 49668,
         "uri": "data:application/octet-stream;base64,"
      },
      {
         "byteLength": 99936,
         "uri": "data:application/octet-stream;base64,"
      },
      {
         "byteLength": 6000,
         "uri": "data:application/octet-stream;base64,"
      },
      {
         "byteLength": 6000,
         "uri": "data:application/octet-stream;base64,"
      },
      {
         "byteLength": 12000,
         "uri": "data:application/octet-stream;base64,"
      },
      {
         "byteLength": 31176,
         "uri": "data:application/octet-stream;base64,"
      },
      {
         "byteLength": 31176,
         "uri": "data:application/octet-stream;base64,"
      },
      {
         "byteLength": 62208,
         "uri": "data:application/octet-stream;base64,"
      }
   ],
   "cameras": [
      {
         "perspective": {
            "aspectRatio": 1.0,
            "yfov": 0.5235987755982988,
            "zfar": 1000.01,
            "znear": 0.01
         },
         "type": "perspective"
      }
   ],
   "materials": [
      {
         "pbrMetallicRoughness": {
            "baseColorFactor": [
               0.8666666666666667,
               0.8254901960784312,
               0.9254901960784314,
               1.0
            ],
            "metallicFactor": 0.0,
            "roughnessFactor": 1.0
         }
      },
      {
         "pbrMetallicRoughness": {
            "baseColorFactor": [
               0.796078431372549,
               0.0,
               0.7326229042341574,
               1.0
            ],
            "metallicFactor": 0.0,
            "roughnessFactor": 1.0
         }
      },
      {
         "pbrMetallicRoughness": {
            "baseColorFactor": [
               0.8156862745098039,
               0.0,
               0.016905415015747473,
               1.0
            ],
            "metallicFactor": 0.0,
            "roughnessFactor": 1.0
         }
      },
      {
         "pbrMetallicRoughness": {
            "baseColorFactor": [
               0.7411764705882353,
               0.23382352941176474,
               0.0,
               1.0
            ],
            "metallicFactor": 0.0,
            "roughnessFactor": 1.0
         }
      },
      {
         "pbrMetallicRoughness": {
            "baseColorFactor": [
               0.7027450980392155,
               0.0,
               0.8784313725490196,
               1.0
            ],
            "metallicFactor": 0.0,
            "roughnessFactor": 1.0
         }
      },
      {
         "pbrMetallicRoughness": {
            "baseColorFactor": [
               0.6666666666666666,
               0.10222222222222227,
               0.0,
               1.0
            ],
            "metallicFactor": 0.0,
            "roughnessFactor": 1.0
         }
      },
      {
         "pbrMetallicRoughness": {
            "baseColorFactor": [
               0.07058823529411758,
               0.5352941176470589,
               0.8235294117647058,
               1.0
            ],
            "metallicFactor": 0.0,
            "roughnessFactor": 1.0
         }
      },
      {
         "pbrMetallicRoughness": {
            "baseColorFactor": [
               0.026890756302520913,
               0.0,
               0.8156862745098039,
               1.0
            ],
            "metallicFactor": 0.0,
            "roughnessFactor": 1.0
         }
      },
      {
         "pbrMetallicRoughness": {
            "baseColorFactor": [
               0.0,
               0.4392156862745097,
               0.6,
               1.0
            ],
            "metallicFactor": 0.0,
            "roughnessFactor": 1.0
         }
      },
      {
         "pbrMetallicRoughness": {
            "baseColorFactor": [
               0.0,
               0.9019607843137255,
               0.7508469356328916,
               1.0
            ],
            "metallicFactor": 0.0,
            "roughnessFactor": 1.0
         }
      },
      {
         "pbrMetallicRoughness": {
            "baseColorFactor": [
               0.0,
               0.22735906862745084,
               0.7098039215686275,
               1.0
            ],
            "metallicFactor": 0.0,
            "roughnessFactor": 1.0
         }
      }
   ],
   "meshes": [
      {
         "name": "ventricles",
         "primitives": [
            {
               "attributes": {
                  "NORMAL": 1,
                  "POSITION": 0
               },
               "indices": 2,
               "material": 0,
               "mode": 4
            }
         ]
      },
      {
         "name": "la",
         "primitives": [
            {
               "attributes": {
                  "NORMAL": 4,
                  "POSITION": 3
               },
               "indices": 5,
               "material": 1,
               "mode": 4
            }
         ]
      },
      {
         "name": "mv",
         "primitives": [
            {
               "attributes": {
                  "NORMAL": 7,
                  "POSITION": 6
               },
               "indices": 8,
               "material": 2,
               "mode": 4
            }
         ]
      },
      {
         "name": "lv",
         "primitives": [
            {
               "attributes": {
                  "NORMAL": 10,
                  "POSITION": 9
               },
               "indices": 11,
               "material": 3,
               "mode": 4
            }
         ]
      },
      {
         "name": "aov",
         "primitives": [
            {
               "attributes": {
                  "NORMAL": 13,
                  "POSITION": 12
               },
               "indices": 14,
               "material": 4,
               "mode": 4
            }
         ]
      },
      {
         "name": "aorta",
         "primitives": [
            {
               "attributes": {
                  "NORMAL": 16,
                  "POSITION": 15
               },
               "indices": 17,
               "material": 5,
               "mode": 4
            }
         ]
      },
      {
         "name": "ra",
         "primitives": [
            {
               "attributes": {
                  "NORMAL": 19,
                  "POSITION": 18
               },
               "indices": 20,
               "material": 6,
               "mode": 4
            }
         ]
      },
      {
         "name": "tv",
         "primitives": [
            {
               "attributes": {
                  "NORMAL": 22,
                  "POSITION": 21
               },
               "indices": 23,
               "material": 7,
               "mode": 4
            }
         ]
      },
      {
         "name": "rv",
         "primitives": [
            {
               "attributes": {
                  "NORMAL": 25,
                  "POSITION": 24
               },
               "indices": 26,
               "material": 8,
               "mode": 4
            }
         ]
      },
      {
         "name": "pv",
         "primitives": [
            {
               "attributes": {
                  "NORMAL": 28,
                  "POSITION": 27
               },
               "indices": 29,
               "material": 9,
               "mode": 4
            }
         ]
      },
      {
         "name": "pa",
         "primitives": [
            {
               "attributes": {
                  "NORMAL": 31,
                  "POSITION": 30
               },
               "indices": 32,
               "material": 10,
               "mode": 4
            }
         ]
      }
   ],
   "nodes": [
      {
         "mesh": 0,
         "name": "ventricles"
      },
      {
         "mesh": 1,
         "name": "la"
      },
      {
         "mesh": 2,
         "name": "mv"
      },
      {
         "mesh": 3,
         "name": "lv"
      },
      {
         "mesh": 4,
         "name": "aov"
      },
      {
         "mesh": 5,
         "name": "aorta"
      },
      {
         "mesh": 6,
         "name": "ra"
      },
      {
         "mesh": 7,
         "name": "tv"
      },
      {
         "mesh": 8,
         "name": "rv"
      },
      {
         "mesh": 9,
         "name": "pv"
      },
      {
         "mesh": 10,
         "name": "pa"
      },
      {
         "name": "HLHS",
         "children": [
            0,
            1,
            2,
            3,
            4,
            5,
            6,
            7,
            8,
            9,
            10
         ],
         "matrix": [
            1.0,
            0.0,
            0.0,
            0.0,
            0.0,
            0.0,
            -1.0,
            0.0,
            0.0,
            1.0,
            0.0,
            0.0,
            0.0,
            0.0,
            0.0,
            1.0
         ]
      }
   ],
   "scene": 0,
   "scenes": [
      {
         "name": "Layer 0",
         "nodes": [
            11
         ]
      }
   ]
}