{
   "accessors": [
      {
         "bufferView": 0,
         "byteOffset": 0,
         "componentType": 5126,
         "count": 54872,
         "max": [
            82.97810363769531,
            37.07870101928711,
            1402.31005859375
         ],
         "min": [
            -10.11050033569336,
            -16.092199325561523,
            1318.4599609375
         ],
         "type": "VEC3"
      },
      {
         "bufferView": 1,
         "byteOffset": 0,
         "componentType": 5126,
         "count": 54872,
         "type": "VEC3"
      },
      {
         "bufferView": 2,
         "byteOffset": 0,
         "componentType": 5125,
         "count": 329694,
         "type": "SCALAR"
      },
      {
         "bufferView": 3,
         "byteOffset": 0,
         "componentType": 5126,
         "count": 909,
         "max": [
            39.58980178833008,
            7.214779853820801,
            1366.4000244140625
         ],
         "min": [
            26.79490089416504,
            -5.877389907836914,
            1349.780029296875
         ],
         "type": "VEC3"
      },
      {
         "bufferView": 4,
         "byteOffset": 0,
         "componentType": 5126,
         "count": 909,
         "type": "VEC3"
      },
      {
         "bufferView": 5,
         "byteOffset": 0,
         "componentType": 5125,
         "count": 5478,
         "type": "SCALAR"
      },
      {
         "bufferView": 6,
         "byteOffset": 0,
         "componentType": 5126,
         "count": 524,
         "max": [
            49.16210174560547,
            8.484789848327637,
            1358.3800048828125
         ],
         "min": [
            40.255001068115234,
            -1.0374000072479248,
            1351.27001953125
         ],
         "type": "VEC3"
      },
      {
         "bufferView": 7,
         "byteOffset": 0,
         "componentType": 5126,
         "count": 524,
         "type": "VEC3"
      },
      {
         "bufferView": 8,
         "byteOffset": 0,
         "componentType": 5125,
         "count": 3120,
         "type": "SCALAR"
      },
      {
         "bufferView": 9,
         "byteOffset": 0,
         "componentType": 5126,
         "count": 1725,
         "max": [
            48.650001525878906,
            12.233400344848633,
            1359.5699462890625
         ],
         "min": [
            28.628299713134766,
            -1.7476799488067627,
            1340.3199462890625
         ],
         "type": "VEC3"
      },
      {
         "bufferView": 10,
         "byteOffset": 0,
         "componentType": 5126,
         "count": 1725,
         "type": "VEC3"
      },
      {
         "bufferView": 11,
         "byteOffset": 0,
         "componentType": 5125,
         "count": 10470,
         "type": "SCALAR"
      }
   ],
   "asset": {
      "generator": "Slicer 5.2.2",
      "version": "2.0"
   },
   "bufferViews": [
      {
         "buffer": 0,
         "byteLength": 658464,
         "byteOffset": 0
      },
      {
         "buffer": 1,
         "byteLength": 658464,
         "byteOffset": 0
      },
      {
         "buffer": 2,
         "byteLength": 1318776,
         "byteOffset": 0
      },
      {
         "buffer": 3,
         "byteLength": 10908,
         "byteOffset": 0
      },
      {
         "buffer": 4,
         "byteLength": 10908,
         "byteOffset": 0
      },
      {
         "buffer": 5,
         "byteLength": 21912,
         "byteOffset": 0
      },
      {
         "buffer": 6,
         "byteLength": 6288,
         "byteOffset": 0
      },
      {
         "buffer": 7,
         "byteLength": 6288,
         "byteOffset": 0
      },
      {
         "buffer": 8,
         "byteLength": 12480,
         "byteOffset": 0
      },
      {
         "buffer": 9,
         "byteLength": 20700,
         "byteOffset": 0
      },
      {
         "buffer": 10,
         "byteLength": 20700,
         "byteOffset": 0
      },
      {
         "buffer": 11,
         "byteLength": 41880,
         "byteOffset": 0
      }
   ],
   "buffers": [
      {
         "byteLength": 658464,
         "uri": "data:application/octet-stream;base64,"
      },
      {
         "byteLength": 658464,
         "uri": "data:application/octet-stream;base64,"
      },
      {
         "byteLength": 1318776,
         "uri": "data:application/octet-stream;base64,"
      },
      {
         "byteLength": 10908,
         "uri": "data:application/octet-stream;base64,"
      },
      {
         "byteLength": 10908,
         "uri": "data:application/octet-stream;base64,"
      },
      {
         "byteLength": 21912,
         "uri": "data:application/octet-stream;base64,"
      },
      {
         "byteLength": 6288,
         "uri": "data:application/octet-stream;base64,"
      },
      {
         "byteLength": 6288,
         "uri": "data:application/octet-stream;base64,"
      },
      {
         "byteLength": 12480,
         "uri": "data:application/octet-stream;base64,"
      },
      {
         "byteLength": 20700,
         "uri": "data:application/octet-stream;base64,"
      },
      {
         "byteLength": 20700,
         "uri": "data:application/octet-stream;base64,"
      },
      {
         "byteLength": 41880,
         "uri": "data:application/octet-stream;base64,"
      }
   ],
   "cameras": [
      {
         "perspective": {
            "aspectRatio": 1.0,
            "yfov": 0.5235987755982988,
            "zfar": 1000.01,
            "znear": 0.01
         },
         "type": "perspective"
      }
   ],
   "materials": [
      {
         "pbrMetallicRoughness": {
            "baseColorFactor": [
               0.9921568627450981,
               0.4098039215686273,
               0.41568627450980394,
               1.0
            ],
            "metallicFactor": 0.0,
            "roughnessFactor": 1.0
         }
      },
      {
         "pbrMetallicRoughness": {
            "baseColorFactor": [
               0.850980392156863,
               0.0,
               1.0,
               1.0
            ],
            "metallicFactor": 0.0,
            "roughnessFactor": 1.0
         }
      },
      {
         "pbrMetallicRoughness": {
            "baseColorFactor": [
               0.9058823529411765,
               0.9058823529411765,
               0.9058823529411765,
               1.0
            ],
            "metallicFactor": 0.0,
            "roughnessFactor": 1.0
         }
      },
      {
         "pbrMetallicRoughness": {
            "baseColorFactor": [
               0.45490196078431366,
               0.8901960784313725,
               0.7607843137254902,
               1.0
            ],
            "metallicFactor": 0.0,
            "roughnessFactor": 1.0
         }
      }
   ],
   "meshes": [
      {
         "name": "Left Heart",
         "primitives": [
            {
               "attributes": {
                  "NORMAL": 1,
                  "POSITION": 0
               },
               "indices": 2,
               "material": 0,
               "mode": 4
            }
         ]
      },
      {
         "name": "AoV",
         "primitives": [
            {
               "attributes": {
                  "NORMAL": 4,
                  "POSITION": 3
               },
               "indices": 5,
               "material": 1,
               "mode": 4
            }
         ]
      },
      {
         "name": "Konno",
         "primitives": [
            {
               "attributes": {
                  "NORMAL": 7,
                  "POSITION": 6
               },
               "indices": 8,
               "material": 2,
               "mode": 4
            }
         ]
      },
      {
         "name": "LVOT",
         "primitives": [
            {
               "attributes": {
                  "NORMAL": 10,
                  "POSITION": 9
               },
               "indices": 11,
               "material": 3,
               "mode": 4
            }
         ]
      }
   ],
   "nodes": [
      {
         "mesh": 0,
         "name": "Left Heart"
      },
      {
         "mesh": 1,
         "name": "AoV"
      },
      {
         "mesh": 2,
         "name": "Konno"
      },
      {
         "mesh": 3,
         "name": "LVOT"
      },
      {
         "name": "Segmentation-models",
         "children": [
            0,
            1,
            2,
            3
         ],
         "matrix": [
            1.0,
            0.0,
            0.0,
            0.0,
            0.0,
            0.0,
            -1.0,
            0.0,
            0.0,
            1.0,
            0.0,
            0.0,
            0.0,
            0.0,
            0.0,
            1.0
         ]
      }
   ],
   "scene": 0,
   "scenes": [
      {
         "name": "Layer 0",
         "nodes": [
            4
         ]
      }
   ]
}