{
   "accessors": [
      {
         "bufferView": 0,
         "byteOffset": 0,
         "componentType": 5126,
         "count": 7629,
         "max": [
            39.5523,
            26.1371,
            1405.05
         ],
         "min": [
            -38.5959,
            -24.3187,
            1365.36
         ],
         "type": "VEC3"
      },
      {
         "bufferView": 1,
         "byteOffset": 0,
         "componentType": 5126,
         "count": 7629,
         "type": "VEC3"
      },
      {
         "bufferView": 2,
         "byteOffset": 0,
         "componentType": 5126,
         "count": 7629,
         "normalized": false,
         "type": "VEC2"
      },
      {
         "bufferView": 3,
         "byteOffset": 0,
         "componentType": 5125,
         "count": 45840,
         "type": "SCALAR"
      },
      {
         "bufferView": 4,
         "byteOffset": 0,
         "componentType": 5126,
         "count": 2821,
         "max": [
            33.8911,
            23.392,
            1448.73
         ],
         "min": [
            -29.6299,
            -0.0476161,
            1367.43
         ],
         "type": "VEC3"
      },
      {
         "bufferView": 5,
         "byteOffset": 0,
         "componentType": 5126,
         "count": 2821,
         "type": "VEC3"
      },
      {
         "bufferView": 6,
         "byteOffset": 0,
         "componentType": 5126,
         "count": 2821,
         "normalized": false,
         "type": "VEC2"
      },
      {
         "bufferView": 7,
         "byteOffset": 0,
         "componentType": 5125,
         "count": 16914,
         "type": "SCALAR"
      }
   ],
   "asset": {
      "generator": "Slicer 5.10.0",
      "version": "2.0"
   },
   "bufferViews": [
      {
         "buffer": 0,
         "byteLength": 91548,
         "byteOffset": 0,
         "target": 34962
      },
      {
         "buffer": 1,
         "byteLength": 91548,
         "byteOffset": 0,
         "target": 34962
      },
      {
         "buffer": 2,
         "byteLength": 61032,
         "byteOffset": 0,
         "target": 34962
      },
      {
         "buffer": 3,
         "byteLength": 183360,
         "byteOffset": 0,
         "target": 34963
      },
      {
         "buffer": 4,
         "byteLength": 33852,
         "byteOffset": 0,
         "target": 34962
      },
      {
         "buffer": 5,
         "byteLength": 33852,
         "byteOffset": 0,
         "target": 34962
      },
      {
         "buffer": 6,
         "byteLength": 22568,
         "byteOffset": 0,
         "target": 34962
      },
      {
         "buffer": 7,
         "byteLength": 67656,
         "byteOffset": 0,
         "target": 34963
      }
   ],
   "buffers": [
      {
         "byteLength": 91548,
         "uri": "data:application/octet-stream;base64,"
      },
      {
         "byteLength": 91548,
         "uri": "data:application/octet-stream;base64,"
      },
      {
         "byteLength": 61032,
         "uri": "data:application/octet-stream;base64,"
      },
      {
         "byteLength": 183360,
         "uri": "data:application/octet-stream;base64,"
      },
      {
         "byteLength": 33852,
         "uri": "data:application/octet-stream;base64,"
      },
      {
         "byteLength": 33852,
         "uri": "data:application/octet-stream;base64,"
      },
      {
         "byteLength": 22568,
         "uri": "data:application/octet-stream;base64,"
      },
      {
         "byteLength": 67656,
         "uri": "data:application/octet-stream;base64,"
      }
   ],
   "cameras": [
      {
         "perspective": {
            "aspectRatio": 1.0,
            "yfov": 0.5235987755982988,
            "zfar": 1000.01,
            "znear": 0.01
         },
         "type": "perspective"
      }
   ],
   "materials": [
      {
         "pbrMetallicRoughness": {
            "baseColorFactor": [
               0.03560131487502034,
               0.1119324278369056,
               0.4620769996544071,
               1.0
            ],
            "metallicFactor": 0.0,
            "roughnessFactor": 1.0
         }
      },
      {
         "pbrMetallicRoughness": {
            "baseColorFactor": [
               0.467783796112159,
               0.7758222183174236,
               1.0,
               1.0
            ],
            "metallicFactor": 0.0,
            "roughnessFactor": 1.0
         }
      }
   ],
   "meshes": [
      {
         "name": "pa",
         "primitives": [
            {
               "attributes": {
                  "NORMAL": 1,
                  "POSITION": 0,
                  "TEXCOORD_0": 2
               },
               "indices": 3,
               "material": 0,
               "mode": 4
            }
         ]
      },
      {
         "name": "trachea",
         "primitives": [
            {
               "attributes": {
                  "NORMAL": 5,
                  "POSITION": 4,
                  "TEXCOORD_0": 6
               },
               "indices": 7,
               "material": 1,
               "mode": 4
            }
         ]
      }
   ],
   "nodes": [
      {
         "mesh": 0,
         "name": "pa"
      },
      {
         "mesh": 1,
         "name": "trachea"
      },
      {
         "name": "sling",
         "children": [
            0,
            1
         ],
         "matrix": [
            0.001,
            0.0,
            0.0,
            0.0,
            0.0,
            0.0,
            -0.001,
            0.0,
            0.0,
            0.001,
            0.0,
            0.0,
            0.0,
            0.0,
            0.0,
            1.0
         ]
      }
   ],
   "scene": 0,
   "scenes": [
      {
         "name": "Layer 0",
         "nodes": [
            2
         ]
      }
   ]
}