{
   "accessors": [
      {
         "bufferView": 0,
         "byteOffset": 0,
         "componentType": 5126,
         "count": 3878,
         "max": [
            51.3685,
            14.699,
            1606.33
         ],
         "min": [
            -42.2137,
            -33.1542,
            1527.53
         ],
         "type": "VEC3"
      },
      {
         "bufferView": 1,
         "byteOffset": 0,
         "componentType": 5126,
         "count": 3878,
         "type": "VEC3"
      },
      {
         "bufferView": 2,
         "byteOffset": 0,
         "componentType": 5125,
         "count": 23886,
         "type": "SCALAR"
      },
      {
         "bufferView": 3,
         "byteOffset": 0,
         "componentType": 5126,
         "count": 5219,
         "max": [
            35.2805,
            -5.89136,
            1577.14
         ],
         "min": [
            -9.39604,
            -56.6204,
            1536.48
         ],
         "type": "VEC3"
      },
      {
         "bufferView": 4,
         "byteOffset": 0,
         "componentType": 5126,
         "count": 5219,
         "type": "VEC3"
      },
      {
         "bufferView": 5,
         "byteOffset": 0,
         "componentType": 5125,
         "count": 31182,
         "type": "SCALAR"
      },
      {
         "bufferView": 6,
         "byteOffset": 0,
         "componentType": 5126,
         "count": 15545,
         "max": [
            54.5665,
            -4.5023,
            1555.79
         ],
         "min": [
            -34.3634,
            -62.6534,
            1493.8
         ],
         "type": "VEC3"
      },
      {
         "bufferView": 7,
         "byteOffset": 0,
         "componentType": 5126,
         "count": 15545,
         "type": "VEC3"
      },
      {
         "bufferView": 8,
         "byteOffset": 0,
         "componentType": 5125,
         "count": 94248,
         "type": "SCALAR"
      },
      {
         "bufferView": 9,
         "byteOffset": 0,
         "componentType": 5126,
         "count": 420,
         "max": [
            17.8749,
            -37.7511,
            1551.86
         ],
         "min": [
            -4.76435,
            -57.9607,
            1537.41
         ],
         "type": "VEC3"
      },
      {
         "bufferView": 10,
         "byteOffset": 0,
         "componentType": 5126,
         "count": 420,
         "type": "VEC3"
      },
      {
         "bufferView": 11,
         "byteOffset": 0,
         "componentType": 5125,
         "count": 2496,
         "type": "SCALAR"
      },
      {
         "bufferView": 12,
         "byteOffset": 0,
         "componentType": 5126,
         "count": 452,
         "max": [
            27.3788,
            -15.3843,
            1555.81
         ],
         "min": [
            9.02336,
            -42.3498,
            1536.4
         ],
         "type": "VEC3"
      },
      {
         "bufferView": 13,
         "byteOffset": 0,
         "componentType": 5126,
         "count": 452,
         "type": "VEC3"
      },
      {
         "bufferView": 14,
         "byteOffset": 0,
         "componentType": 5125,
         "count": 2712,
         "type": "SCALAR"
      },
      {
         "bufferView": 15,
         "byteOffset": 0,
         "componentType": 5126,
         "count": 1562,
         "max": [
            40.2943,
            -21.4907,
            1539.61
         ],
         "min": [
            8.22721,
            -46.4749,
            1498.47
         ],
         "type": "VEC3"
      },
      {
         "bufferView": 16,
         "byteOffset": 0,
         "componentType": 5126,
         "count": 1562,
         "type": "VEC3"
      },
      {
         "bufferView": 17,
         "byteOffset": 0,
         "componentType": 5125,
         "count": 9444,
         "type": "SCALAR"
      },
      {
         "bufferView": 18,
         "byteOffset": 0,
         "componentType": 5126,
         "count": 379,
         "max": [
            19.1802,
            -8.87603,
            1530.89
         ],
         "min": [
            3.38028,
            -28.115,
            1503.43
         ],
         "type": "VEC3"
      },
      {
         "bufferView": 19,
         "byteOffset": 0,
         "componentType": 5126,
         "count": 379,
         "type": "VEC3"
      },
      {
         "bufferView": 20,
         "byteOffset": 0,
         "componentType": 5125,
         "count": 2208,
         "type": "SCALAR"
      },
      {
         "bufferView": 21,
         "byteOffset": 0,
         "componentType": 5126,
         "count": 427,
         "max": [
            11.4004,
            -29.1807,
            1531.75
         ],
         "min": [
            -2.46631,
            -57.8602,
            1500.55
         ],
         "type": "VEC3"
      },
      {
         "bufferView": 22,
         "byteOffset": 0,
         "componentType": 5126,
         "count": 427,
         "type": "VEC3"
      },
      {
         "bufferView": 23,
         "byteOffset": 0,
         "componentType": 5125,
         "count": 2526,
         "type": "SCALAR"
      },
      {
         "bufferView": 24,
         "byteOffset": 0,
         "componentType": 5126,
         "count": 6966,
         "max": [
            25.33,
            14.3101,
            1606.74
         ],
         "min": [
            -2.31166,
            -36.4556,
            1484.66
         ],
         "type": "VEC3"
      },
      {
         "bufferView": 25,
         "byteOffset": 0,
         "componentType": 5126,
         "count": 6966,
         "type": "VEC3"
      },
      {
         "bufferView": 26,
         "byteOffset": 0,
         "componentType": 5125,
         "count": 41790,
         "type": "SCALAR"
      }
   ],
   "asset": {
      "generator": "Slicer 5.4.0",
      "version": "2.0"
   },
   "bufferViews": [
      {
         "buffer": 0,
         "byteLength": 46536,
         "byteOffset": 0,
         "target": 34962
      },
      {
         "buffer": 1,
         "byteLength": 46536,
         "byteOffset": 0,
         "target": 34962
      },
      {
         "buffer": 2,
         "byteLength": 95544,
         "byteOffset": 0,
         "target": 34963
      },
      {
         "buffer": 3,
         "byteLength": 62628,
         "byteOffset": 0,
         "target": 34962
      },
      {
         "buffer": 4,
         "byteLength": 62628,
         "byteOffset": 0,
         "target": 34962
      },
      {
         "buffer": 5,
         "byteLength": 124728,
         "byteOffset": 0,
         "target": 34963
      },
      {
         "buffer": 6,
         "byteLength": 186540,
         "byteOffset": 0,
         "target": 34962
      },
      {
         "buffer": 7,
         "byteLength": 186540,
         "byteOffset": 0,
         "target": 34962
      },
      {
         "buffer": 8,
         "byteLength": 376992,
         "byteOffset": 0,
         "target": 34963
      },
      {
         "buffer": 9,
         "byteLength": 5040,
         "byteOffset": 0,
         "target": 34962
      },
      {
         "buffer": 10,
         "byteLength": 5040,
         "byteOffset": 0,
         "target": 34962
      },
      {
         "buffer": 11,
         "byteLength": 9984,
         "byteOffset": 0,
         "target": 34963
      },
      {
         "buffer": 12,
         "byteLength": 5424,
         "byteOffset": 0,
         "target": 34962
      },
      {
         "buffer": 13,
         "byteLength": 5424,
         "byteOffset": 0,
         "target": 34962
      },
      {
         "buffer": 14,
         "byteLength": 10848,
         "byteOffset": 0,
         "target": 34963
      },
      {
         "buffer": 15,
         "byteLength": 18744,
         "byteOffset": 0,
         "target": 34962
      },
      {
         "buffer": 16,
         "byteLength": 18744,
         "byteOffset": 0,
         "target": 34962
      },
      {
         "buffer": 17,
         "byteLength": 37776,
         "byteOffset": 0,
         "target": 34963
      },
      {
         "buffer": 18,
         "byteLength": 4548,
         "byteOffset": 0,
         "target": 34962
      },
      {
         "buffer": 19,
         "byteLength": 4548,
         "byteOffset": 0,
         "target": 34962
      },
      {
         "buffer": 20,
         "byteLength": 8832,
         "byteOffset": 0,
         "target": 34963
      },
      {
         "buffer": 21,
         "byteLength": 5124,
         "byteOffset": 0,
         "target": 34962
      },
      {
         "buffer": 22,
         "byteLength": 5124,
         "byteOffset": 0,
         "target": 34962
      },
      {
         "buffer": 23,
         "byteLength": 10104,
         "byteOffset": 0,
         "target": 34963
      },
      {
         "buffer": 24,
         "byteLength": 83592,
         "byteOffset": 0,
         "target": 34962
      },
      {
         "buffer": 25,
         "byteLength": 83592,
         "byteOffset": 0,
         "target": 34962
      },
      {
         "buffer": 26,
         "byteLength": 167160,
         "byteOffset": 0,
         "target": 34963
      }
   ],
   "buffers": [
      {
         "byteLength": 46536,
         "uri": "data:application/octet-stream;base64,"
      },
      {
         "byteLength": 46536,
         "uri": "data:application/octet-stream;base64,"
      },
      {
         "byteLength": 95544,
         "uri": "data:application/octet-stream;base64,"
      },
      {
         "byteLength": 62628,
         "uri": "data:application/octet-stream;base64,"
      },
      {
         "byteLength": 62628,
         "uri": "data:application/octet-stream;base64,"
      },
      {
         "byteLength": 124728,
         "uri": "data:application/octet-stream;base64,"
      },
      {
         "byteLength": 186540,
         "uri": "data:application/octet-stream;base64,"
      },
      {
         "byteLength": 186540,
         "uri": "data:application/octet-stream;base64,"
      },
      {
         "byteLength": 376992,
         "uri": "data:application/octet-stream;base64,"
      },
      {
         "byteLength": 5040,
         "uri": "data:application/octet-stream;base64,"
      },
      {
         "byteLength": 5040,
         "uri": "data:application/octet-stream;base64,"
      },
      {
         "byteLength": 9984,
         "uri": "data:application/octet-stream;base64,"
      },
      {
         "byteLength": 5424,
         "uri": "data:application/octet-stream;base64,"
      },
      {
         "byteLength": 5424,
         "uri": "data:application/octet-stream;base64,"
      },
      {
         "byteLength": 10848,
         "uri": "data:application/octet-stream;base64,"
      },
      {
         "byteLength": 18744,
         "uri": "data:application/octet-stream;base64,"
      },
      {
         "byteLength": 18744,
         "uri": "data:application/octet-stream;base64,"
      },
      {
         "byteLength": 37776,
         "uri": "data:application/octet-stream;base64,"
      },
      {
         "byteLength": 4548,
         "uri": "data:application/octet-stream;base64,"
      },
      {
         "byteLength": 4548,
         "uri": "data:application/octet-stream;base64,"
      },
      {
         "byteLength": 8832,
         "uri": "data:application/octet-stream;base64,"
      },
      {
         "byteLength": 5124,
         "uri": "data:application/octet-stream;base64,"
      },
      {
         "byteLength": 5124,
         "uri": "data:application/octet-stream;base64,"
      },
      {
         "byteLength": 10104,
         "uri": "data:application/octet-stream;base64,"
      },
      {
         "byteLength": 83592,
         "uri": "data:application/octet-stream;base64,"
      },
      {
         "byteLength": 83592,
         "uri": "data:application/octet-stream;base64,"
      },
      {
         "byteLength": 167160,
         "uri": "data:application/octet-stream;base64,"
      }
   ],
   "cameras": [
      {
         "perspective": {
            "aspectRatio": 1.0,
            "yfov": 0.5235987755982988,
            "zfar": 1000.01,
            "znear": 0.01
         },
         "type": "perspective"
      }
   ],
   "materials": [
      {
         "pbrMetallicRoughness": {
            "baseColorFactor": [
               0.7156865,
               0.7156865,
               0.921569,
               1.0
            ],
            "metallicFactor": 0.0,
            "roughnessFactor": 1.0
         }
      },
      {
         "pbrMetallicRoughness": {
            "baseColorFactor": [
               0.847059,
               0.17058749999999986,
               0.0411764999999999,
               1.0
            ],
            "metallicFactor": 0.0,
            "roughnessFactor": 1.0
         }
      },
      {
         "pbrMetallicRoughness": {
            "baseColorFactor": [
               0.823529,
               0.5117645,
               0.5647054999999999,
               1.0
            ],
            "metallicFactor": 0.0,
            "roughnessFactor": 1.0
         }
      },
      {
         "pbrMetallicRoughness": {
            "baseColorFactor": [
               0.7127486722611529,
               0.0,
               0.94902,
               1.0
            ],
            "metallicFactor": 0.0,
            "roughnessFactor": 1.0
         }
      },
      {
         "pbrMetallicRoughness": {
            "baseColorFactor": [
               0.0,
               0.933333,
               0.901961,
               1.0
            ],
            "metallicFactor": 0.0,
            "roughnessFactor": 1.0
         }
      },
      {
         "pbrMetallicRoughness": {
            "baseColorFactor": [
               0.0,
               0.929412,
               0.184314,
               1.0
            ],
            "metallicFactor": 0.0,
            "roughnessFactor": 1.0
         }
      },
      {
         "pbrMetallicRoughness": {
            "baseColorFactor": [
               0.960784,
               0.0,
               0.015686300000000302,
               1.0
            ],
            "metallicFactor": 0.0,
            "roughnessFactor": 1.0
         }
      },
      {
         "pbrMetallicRoughness": {
            "baseColorFactor": [
               0.0,
               0.05098040000000004,
               1.0,
               1.0
            ],
            "metallicFactor": 0.0,
            "roughnessFactor": 1.0
         }
      },
      {
         "pbrMetallicRoughness": {
            "baseColorFactor": [
               0.992157,
               0.29803950000000007,
               0.6333329999999998,
               1.0
            ],
            "metallicFactor": 0.0,
            "roughnessFactor": 1.0
         }
      }
   ],
   "meshes": [
      {
         "name": "pa",
         "primitives": [
            {
               "attributes": {
                  "NORMAL": 1,
                  "POSITION": 0
               },
               "indices": 2,
               "material": 0,
               "mode": 4
            }
         ]
      },
      {
         "name": "artery",
         "primitives": [
            {
               "attributes": {
                  "NORMAL": 4,
                  "POSITION": 3
               },
               "indices": 5,
               "material": 1,
               "mode": 4
            }
         ]
      },
      {
         "name": "intracardiac",
         "primitives": [
            {
               "attributes": {
                  "NORMAL": 7,
                  "POSITION": 6
               },
               "indices": 8,
               "material": 2,
               "mode": 4
            }
         ]
      },
      {
         "name": "AoV",
         "primitives": [
            {
               "attributes": {
                  "NORMAL": 10,
                  "POSITION": 9
               },
               "indices": 11,
               "material": 3,
               "mode": 4
            }
         ]
      },
      {
         "name": "PV",
         "primitives": [
            {
               "attributes": {
                  "NORMAL": 13,
                  "POSITION": 12
               },
               "indices": 14,
               "material": 4,
               "mode": 4
            }
         ]
      },
      {
         "name": "VSD",
         "primitives": [
            {
               "attributes": {
                  "NORMAL": 16,
                  "POSITION": 15
               },
               "indices": 17,
               "material": 5,
               "mode": 4
            }
         ]
      },
      {
         "name": "MV",
         "primitives": [
            {
               "attributes": {
                  "NORMAL": 19,
                  "POSITION": 18
               },
               "indices": 20,
               "material": 6,
               "mode": 4
            }
         ]
      },
      {
         "name": "TV",
         "primitives": [
            {
               "attributes": {
                  "NORMAL": 22,
                  "POSITION": 21
               },
               "indices": 23,
               "material": 7,
               "mode": 4
            }
         ]
      },
      {
         "name": "ao",
         "primitives": [
            {
               "attributes": {
                  "NORMAL": 25,
                  "POSITION": 24
               },
               "indices": 26,
               "material": 8,
               "mode": 4
            }
         ]
      }
   ],
   "nodes": [
      {
         "mesh": 0,
         "name": "pa"
      },
      {
         "mesh": 1,
         "name": "artery"
      },
      {
         "mesh": 2,
         "name": "intracardiac"
      },
      {
         "mesh": 3,
         "name": "AoV"
      },
      {
         "mesh": 4,
         "name": "PV"
      },
      {
         "mesh": 5,
         "name": "VSD"
      },
      {
         "mesh": 6,
         "name": "MV"
      },
      {
         "mesh": 7,
         "name": "TV"
      },
      {
         "mesh": 8,
         "name": "ao"
      },
      {
         "name": "TB",
         "children": [
            0,
            1,
            2,
            3,
            4,
            5,
            6,
            7,
            8
         ],
         "matrix": [
            1.0,
            0.0,
            0.0,
            0.0,
            0.0,
            0.0,
            -1.0,
            0.0,
            0.0,
            1.0,
            0.0,
            0.0,
            0.0,
            0.0,
            0.0,
            1.0
         ]
      }
   ],
   "scene": 0,
   "scenes": [
      {
         "name": "Layer 0",
         "nodes": [
            9
         ]
      }
   ]
}