{
   "accessors": [
      {
         "bufferView": 0,
         "byteOffset": 0,
         "componentType": 5126,
         "count": 15034,
         "max": [
            33.3041,
            54.9374,
            1409.62
         ],
         "min": [
            -11.7467,
            17.6433,
            1323.8
         ],
         "type": "VEC3"
      },
      {
         "bufferView": 1,
         "byteOffset": 0,
         "componentType": 5126,
         "count": 15034,
         "type": "VEC3"
      },
      {
         "bufferView": 2,
         "byteOffset": 0,
         "componentType": 5125,
         "count": 90114,
         "type": "SCALAR"
      },
      {
         "bufferView": 3,
         "byteOffset": 0,
         "componentType": 5126,
         "count": 9534,
         "max": [
            33.0751,
            51.1735,
            1380.05
         ],
         "min": [
            -7.56277,
            16.2014,
            1353.84
         ],
         "type": "VEC3"
      },
      {
         "bufferView": 4,
         "byteOffset": 0,
         "componentType": 5126,
         "count": 9534,
         "type": "VEC3"
      },
      {
         "bufferView": 5,
         "byteOffset": 0,
         "componentType": 5125,
         "count": 57192,
         "type": "SCALAR"
      },
      {
         "bufferView": 6,
         "byteOffset": 0,
         "componentType": 5126,
         "count": 157,
         "max": [
            13.5619,
            46.5815,
            1378.49
         ],
         "min": [
            10.6538,
            39.4118,
            1375.88
         ],
         "type": "VEC3"
      },
      {
         "bufferView": 7,
         "byteOffset": 0,
         "componentType": 5126,
         "count": 157,
         "type": "VEC3"
      },
      {
         "bufferView": 8,
         "byteOffset": 0,
         "componentType": 5125,
         "count": 930,
         "type": "SCALAR"
      },
      {
         "bufferView": 9,
         "byteOffset": 0,
         "componentType": 5126,
         "count": 5003,
         "max": [
            33.79,
            48.178,
            1419.48
         ],
         "min": [
            -10.0908,
            34.7989,
            1362.71
         ],
         "type": "VEC3"
      },
      {
         "bufferView": 10,
         "byteOffset": 0,
         "componentType": 5126,
         "count": 5003,
         "type": "VEC3"
      },
      {
         "bufferView": 11,
         "byteOffset": 0,
         "componentType": 5125,
         "count": 29994,
         "type": "SCALAR"
      },
      {
         "bufferView": 12,
         "byteOffset": 0,
         "componentType": 5126,
         "count": 529,
         "max": [
            18.194,
            48.3751,
            1388.74
         ],
         "min": [
            6.8152,
            44.1698,
            1363.7
         ],
         "type": "VEC3"
      },
      {
         "bufferView": 13,
         "byteOffset": 0,
         "componentType": 5126,
         "count": 529,
         "type": "VEC3"
      },
      {
         "bufferView": 14,
         "byteOffset": 0,
         "componentType": 5125,
         "count": 3138,
         "type": "SCALAR"
      }
   ],
   "asset": {
      "generator": "Slicer 5.4.0",
      "version": "2.0"
   },
   "bufferViews": [
      {
         "buffer": 0,
         "byteLength": 180408,
         "byteOffset": 0,
         "target": 34962
      },
      {
         "buffer": 1,
         "byteLength": 180408,
         "byteOffset": 0,
         "target": 34962
      },
      {
         "buffer": 2,
         "byteLength": 360456,
         "byteOffset": 0,
         "target": 34963
      },
      {
         "buffer": 3,
         "byteLength": 114408,
         "byteOffset": 0,
         "target": 34962
      },
      {
         "buffer": 4,
         "byteLength": 114408,
         "byteOffset": 0,
         "target": 34962
      },
      {
         "buffer": 5,
         "byteLength": 228768,
         "byteOffset": 0,
         "target": 34963
      },
      {
         "buffer": 6,
         "byteLength": 1884,
         "byteOffset": 0,
         "target": 34962
      },
      {
         "buffer": 7,
         "byteLength": 1884,
         "byteOffset": 0,
         "target": 34962
      },
      {
         "buffer": 8,
         "byteLength": 3720,
         "byteOffset": 0,
         "target": 34963
      },
      {
         "buffer": 9,
         "byteLength": 60036,
         "byteOffset": 0,
         "target": 34962
      },
      {
         "buffer": 10,
         "byteLength": 60036,
         "byteOffset": 0,
         "target": 34962
      },
      {
         "buffer": 11,
         "byteLength": 119976,
         "byteOffset": 0,
         "target": 34963
      },
      {
         "buffer": 12,
         "byteLength": 6348,
         "byteOffset": 0,
         "target": 34962
      },
      {
         "buffer": 13,
         "byteLength": 6348,
         "byteOffset": 0,
         "target": 34962
      },
      {
         "buffer": 14,
         "byteLength": 12552,
         "byteOffset": 0,
         "target": 34963
      }
   ],
   "buffers": [
      {
         "byteLength": 180408,
         "uri": "data:application/octet-stream;base64,"
      },
      {
         "byteLength": 180408,
         "uri": "data:application/octet-stream;base64,"
      },
      {
         "byteLength": 360456,
         "uri": "data:application/octet-stream;base64,"
      },
      {
         "byteLength": 114408,
         "uri": "data:application/octet-stream;base64,"
      },
      {
         "byteLength": 114408,
         "uri": "data:application/octet-stream;base64,"
      },
      {
         "byteLength": 228768,
         "uri": "data:application/octet-stream;base64,"
      },
      {
         "byteLength": 1884,
         "uri": "data:application/octet-stream;base64,"
      },
      {
         "byteLength": 1884,
         "uri": "data:application/octet-stream;base64,"
      },
      {
         "byteLength": 3720,
         "uri": "data:application/octet-stream;base64,"
      },
      {
         "byteLength": 60036,
         "uri": "data:application/octet-stream;base64,"
      },
      {
         "byteLength": 60036,
         "uri": "data:application/octet-stream;base64,"
      },
      {
         "byteLength": 119976,
         "uri": "data:application/octet-stream;base64,"
      },
      {
         "byteLength": 6348,
         "uri": "data:application/octet-stream;base64,"
      },
      {
         "byteLength": 6348,
         "uri": "data:application/octet-stream;base64,"
      },
      {
         "byteLength": 12552,
         "uri": "data:application/octet-stream;base64,"
      }
   ],
   "cameras": [
      {
         "perspective": {
            "aspectRatio": 1.0,
            "yfov": 0.5235987755982988,
            "zfar": 1000.01,
            "znear": 0.01
         },
         "type": "perspective"
      }
   ],
   "materials": [
      {
         "pbrMetallicRoughness": {
            "baseColorFactor": [
               0.666667,
               0.10222167795556748,
               0.0,
               1.0
            ],
            "metallicFactor": 0.0,
            "roughnessFactor": 1.0
         }
      },
      {
         "pbrMetallicRoughness": {
            "baseColorFactor": [
               0.0,
               0.22735855242937208,
               0.709804,
               1.0
            ],
            "metallicFactor": 0.0,
            "roughnessFactor": 1.0
         }
      },
      {
         "pbrMetallicRoughness": {
            "baseColorFactor": [
               0.4506421404312217,
               0.0,
               0.905882,
               1.0
            ],
            "metallicFactor": 0.0,
            "roughnessFactor": 1.0
         }
      },
      {
         "pbrMetallicRoughness": {
            "baseColorFactor": [
               0.5705875,
               0.841177,
               1.0,
               1.0
            ],
            "metallicFactor": 0.0,
            "roughnessFactor": 1.0
         }
      },
      {
         "pbrMetallicRoughness": {
            "baseColorFactor": [
               0.827451,
               0.5921564999999999,
               0.4274504999999999,
               1.0
            ],
            "metallicFactor": 0.0,
            "roughnessFactor": 1.0
         }
      }
   ],
   "meshes": [
      {
         "name": "aorta",
         "primitives": [
            {
               "attributes": {
                  "NORMAL": 1,
                  "POSITION": 0
               },
               "indices": 2,
               "material": 0,
               "mode": 4
            }
         ]
      },
      {
         "name": "pulmonary artery",
         "primitives": [
            {
               "attributes": {
                  "NORMAL": 4,
                  "POSITION": 3
               },
               "indices": 5,
               "material": 1,
               "mode": 4
            }
         ]
      },
      {
         "name": "ligamentum arteriosum",
         "primitives": [
            {
               "attributes": {
                  "NORMAL": 7,
                  "POSITION": 6
               },
               "indices": 8,
               "material": 2,
               "mode": 4
            }
         ]
      },
      {
         "name": "trachea",
         "primitives": [
            {
               "attributes": {
                  "NORMAL": 10,
                  "POSITION": 9
               },
               "indices": 11,
               "material": 3,
               "mode": 4
            }
         ]
      },
      {
         "name": "esophagus",
         "primitives": [
            {
               "attributes": {
                  "NORMAL": 13,
                  "POSITION": 12
               },
               "indices": 14,
               "material": 4,
               "mode": 4
            }
         ]
      }
   ],
   "nodes": [
      {
         "mesh": 0,
         "name": "aorta"
      },
      {
         "mesh": 1,
         "name": "pulmonary artery"
      },
      {
         "mesh": 2,
         "name": "ligamentum arteriosum"
      },
      {
         "mesh": 3,
         "name": "trachea"
      },
      {
         "mesh": 4,
         "name": "esophagus"
      },
      {
         "name": "daa idd",
         "children": [
            0,
            1,
            2,
            3,
            4
         ],
         "matrix": [
            1.0,
            0.0,
            0.0,
            0.0,
            0.0,
            0.0,
            -1.0,
            0.0,
            0.0,
            1.0,
            0.0,
            0.0,
            0.0,
            0.0,
            0.0,
            1.0
         ]
      }
   ],
   "scene": 0,
   "scenes": [
      {
         "name": "Layer 0",
         "nodes": [
            5
         ]
      }
   ]
}