{
   "accessors": [
      {
         "bufferView": 0,
         "byteOffset": 0,
         "componentType": 5126,
         "count": 5309,
         "max": [
            24.1657,
            228.088,
            158.939
         ],
         "min": [
            -12.6294,
            184.49,
            101.015
         ],
         "type": "VEC3"
      },
      {
         "bufferView": 1,
         "byteOffset": 0,
         "componentType": 5126,
         "count": 5309,
         "type": "VEC3"
      },
      {
         "bufferView": 2,
         "byteOffset": 0,
         "componentType": 5125,
         "count": 31830,
         "type": "SCALAR"
      },
      {
         "bufferView": 3,
         "byteOffset": 0,
         "componentType": 5126,
         "count": 3678,
         "max": [
            28.682,
            225.518,
            134.892
         ],
         "min": [
            -19.5937,
            196.609,
            113.681
         ],
         "type": "VEC3"
      },
      {
         "bufferView": 4,
         "byteOffset": 0,
         "componentType": 5126,
         "count": 3678,
         "type": "VEC3"
      },
      {
         "bufferView": 5,
         "byteOffset": 0,
         "componentType": 5125,
         "count": 22104,
         "type": "SCALAR"
      },
      {
         "bufferView": 6,
         "byteOffset": 0,
         "componentType": 5126,
         "count": 123,
         "max": [
            0.78575,
            221.534,
            140.605
         ],
         "min": [
            -4.70067,
            211.787,
            134.213
         ],
         "type": "VEC3"
      },
      {
         "bufferView": 7,
         "byteOffset": 0,
         "componentType": 5126,
         "count": 123,
         "type": "VEC3"
      },
      {
         "bufferView": 8,
         "byteOffset": 0,
         "componentType": 5125,
         "count": 726,
         "type": "SCALAR"
      },
      {
         "bufferView": 9,
         "byteOffset": 0,
         "componentType": 5126,
         "count": 2808,
         "max": [
            21.4889,
            225.791,
            159.969
         ],
         "min": [
            -18.3553,
            211.89,
            114.8
         ],
         "type": "VEC3"
      },
      {
         "bufferView": 10,
         "byteOffset": 0,
         "componentType": 5126,
         "count": 2808,
         "type": "VEC3"
      },
      {
         "bufferView": 11,
         "byteOffset": 0,
         "componentType": 5125,
         "count": 16824,
         "type": "SCALAR"
      },
      {
         "bufferView": 12,
         "byteOffset": 0,
         "componentType": 5126,
         "count": 286,
         "max": [
            8.34336,
            223.631,
            157.074
         ],
         "min": [
            -3.45578,
            218.309,
            120.469
         ],
         "type": "VEC3"
      },
      {
         "bufferView": 13,
         "byteOffset": 0,
         "componentType": 5126,
         "count": 286,
         "type": "VEC3"
      },
      {
         "bufferView": 14,
         "byteOffset": 0,
         "componentType": 5125,
         "count": 1680,
         "type": "SCALAR"
      }
   ],
   "asset": {
      "generator": "Slicer 5.4.0",
      "version": "2.0"
   },
   "bufferViews": [
      {
         "buffer": 0,
         "byteLength": 63708,
         "byteOffset": 0,
         "target": 34962
      },
      {
         "buffer": 1,
         "byteLength": 63708,
         "byteOffset": 0,
         "target": 34962
      },
      {
         "buffer": 2,
         "byteLength": 127320,
         "byteOffset": 0,
         "target": 34963
      },
      {
         "buffer": 3,
         "byteLength": 44136,
         "byteOffset": 0,
         "target": 34962
      },
      {
         "buffer": 4,
         "byteLength": 44136,
         "byteOffset": 0,
         "target": 34962
      },
      {
         "buffer": 5,
         "byteLength": 88416,
         "byteOffset": 0,
         "target": 34963
      },
      {
         "buffer": 6,
         "byteLength": 1476,
         "byteOffset": 0,
         "target": 34962
      },
      {
         "buffer": 7,
         "byteLength": 1476,
         "byteOffset": 0,
         "target": 34962
      },
      {
         "buffer": 8,
         "byteLength": 2904,
         "byteOffset": 0,
         "target": 34963
      },
      {
         "buffer": 9,
         "byteLength": 33696,
         "byteOffset": 0,
         "target": 34962
      },
      {
         "buffer": 10,
         "byteLength": 33696,
         "byteOffset": 0,
         "target": 34962
      },
      {
         "buffer": 11,
         "byteLength": 67296,
         "byteOffset": 0,
         "target": 34963
      },
      {
         "buffer": 12,
         "byteLength": 3432,
         "byteOffset": 0,
         "target": 34962
      },
      {
         "buffer": 13,
         "byteLength": 3432,
         "byteOffset": 0,
         "target": 34962
      },
      {
         "buffer": 14,
         "byteLength": 6720,
         "byteOffset": 0,
         "target": 34963
      }
   ],
   "buffers": [
      {
         "byteLength": 63708,
         "uri": "data:application/octet-stream;base64,"
      },
      {
         "byteLength": 63708,
         "uri": "data:application/octet-stream;base64,"
      },
      {
         "byteLength": 127320,
         "uri": "data:application/octet-stream;base64,"
      },
      {
         "byteLength": 44136,
         "uri": "data:application/octet-stream;base64,"
      },
      {
         "byteLength": 44136,
         "uri": "data:application/octet-stream;base64,"
      },
      {
         "byteLength": 88416,
         "uri": "data:application/octet-stream;base64,"
      },
      {
         "byteLength": 1476,
         "uri": "data:application/octet-stream;base64,"
      },
      {
         "byteLength": 1476,
         "uri": "data:application/octet-stream;base64,"
      },
      {
         "byteLength": 2904,
         "uri": "data:application/octet-stream;base64,"
      },
      {
         "byteLength": 33696,
         "uri": "data:application/octet-stream;base64,"
      },
      {
         "byteLength": 33696,
         "uri": "data:application/octet-stream;base64,"
      },
      {
         "byteLength": 67296,
         "uri": "data:application/octet-stream;base64,"
      },
      {
         "byteLength": 3432,
         "uri": "data:application/octet-stream;base64,"
      },
      {
         "byteLength": 3432,
         "uri": "data:application/octet-stream;base64,"
      },
      {
         "byteLength": 6720,
         "uri": "data:application/octet-stream;base64,"
      }
   ],
   "cameras": [
      {
         "perspective": {
            "aspectRatio": 1.0,
            "yfov": 0.5235987755982988,
            "zfar": 1000.01,
            "znear": 0.01
         },
         "type": "perspective"
      }
   ],
   "materials": [
      {
         "pbrMetallicRoughness": {
            "baseColorFactor": [
               0.666667,
               0.10222167795556748,
               0.0,
               1.0
            ],
            "metallicFactor": 0.0,
            "roughnessFactor": 1.0
         }
      },
      {
         "pbrMetallicRoughness": {
            "baseColorFactor": [
               0.0,
               0.22735855242937208,
               0.709804,
               1.0
            ],
            "metallicFactor": 0.0,
            "roughnessFactor": 1.0
         }
      },
      {
         "pbrMetallicRoughness": {
            "baseColorFactor": [
               0.4506421404312217,
               0.0,
               0.905882,
               1.0
            ],
            "metallicFactor": 0.0,
            "roughnessFactor": 1.0
         }
      },
      {
         "pbrMetallicRoughness": {
            "baseColorFactor": [
               0.5705875,
               0.841177,
               1.0,
               1.0
            ],
            "metallicFactor": 0.0,
            "roughnessFactor": 1.0
         }
      },
      {
         "pbrMetallicRoughness": {
            "baseColorFactor": [
               0.827451,
               0.5921564999999999,
               0.4274504999999999,
               1.0
            ],
            "metallicFactor": 0.0,
            "roughnessFactor": 1.0
         }
      }
   ],
   "meshes": [
      {
         "name": "aorta",
         "primitives": [
            {
               "attributes": {
                  "NORMAL": 1,
                  "POSITION": 0
               },
               "indices": 2,
               "material": 0,
               "mode": 4
            }
         ]
      },
      {
         "name": "pa",
         "primitives": [
            {
               "attributes": {
                  "NORMAL": 4,
                  "POSITION": 3
               },
               "indices": 5,
               "material": 1,
               "mode": 4
            }
         ]
      },
      {
         "name": "ligamentum arteriosum",
         "primitives": [
            {
               "attributes": {
                  "NORMAL": 7,
                  "POSITION": 6
               },
               "indices": 8,
               "material": 2,
               "mode": 4
            }
         ]
      },
      {
         "name": "trachea",
         "primitives": [
            {
               "attributes": {
                  "NORMAL": 10,
                  "POSITION": 9
               },
               "indices": 11,
               "material": 3,
               "mode": 4
            }
         ]
      },
      {
         "name": "esophagus",
         "primitives": [
            {
               "attributes": {
                  "NORMAL": 13,
                  "POSITION": 12
               },
               "indices": 14,
               "material": 4,
               "mode": 4
            }
         ]
      }
   ],
   "nodes": [
      {
         "mesh": 0,
         "name": "aorta"
      },
      {
         "mesh": 1,
         "name": "pa"
      },
      {
         "mesh": 2,
         "name": "ligamentum arteriosum"
      },
      {
         "mesh": 3,
         "name": "trachea"
      },
      {
         "mesh": 4,
         "name": "esophagus"
      },
      {
         "name": "idd laa type2",
         "children": [
            0,
            1,
            2,
            3,
            4
         ],
         "matrix": [
            1.0,
            0.0,
            0.0,
            0.0,
            0.0,
            0.0,
            -1.0,
            0.0,
            0.0,
            1.0,
            0.0,
            0.0,
            0.0,
            0.0,
            0.0,
            1.0
         ]
      }
   ],
   "scene": 0,
   "scenes": [
      {
         "name": "Layer 0",
         "nodes": [
            5
         ]
      }
   ]
}