{
   "accessors": [
      {
         "bufferView": 0,
         "byteOffset": 0,
         "componentType": 5126,
         "count": 8255,
         "max": [
            48.0768,
            5.34668,
            1588.19
         ],
         "min": [
            0.191596,
            -40.0466,
            1544.3
         ],
         "type": "VEC3"
      },
      {
         "bufferView": 1,
         "byteOffset": 0,
         "componentType": 5126,
         "count": 8255,
         "type": "VEC3"
      },
      {
         "bufferView": 2,
         "byteOffset": 0,
         "componentType": 5125,
         "count": 49704,
         "type": "SCALAR"
      },
      {
         "bufferView": 3,
         "byteOffset": 0,
         "componentType": 5126,
         "count": 20643,
         "max": [
            36.4233,
            -7.74705,
            1608.42
         ],
         "min": [
            -14.2462,
            -47.7596,
            1548.31
         ],
         "type": "VEC3"
      },
      {
         "bufferView": 4,
         "byteOffset": 0,
         "componentType": 5126,
         "count": 20643,
         "type": "VEC3"
      },
      {
         "bufferView": 5,
         "byteOffset": 0,
         "componentType": 5125,
         "count": 124326,
         "type": "SCALAR"
      },
      {
         "bufferView": 6,
         "byteOffset": 0,
         "componentType": 5126,
         "count": 709,
         "max": [
            30.6063,
            -12.8694,
            1586.34
         ],
         "min": [
            22.0814,
            -40.7992,
            1565.33
         ],
         "type": "VEC3"
      },
      {
         "bufferView": 7,
         "byteOffset": 0,
         "componentType": 5126,
         "count": 709,
         "type": "VEC3"
      },
      {
         "bufferView": 8,
         "byteOffset": 0,
         "componentType": 5125,
         "count": 4254,
         "type": "SCALAR"
      },
      {
         "bufferView": 9,
         "byteOffset": 0,
         "componentType": 5126,
         "count": 3078,
         "max": [
            28.3138,
            -8.25667,
            1587.76
         ],
         "min": [
            1.60245,
            -48.1928,
            1552.86
         ],
         "type": "VEC3"
      },
      {
         "bufferView": 10,
         "byteOffset": 0,
         "componentType": 5126,
         "count": 3078,
         "type": "VEC3"
      },
      {
         "bufferView": 11,
         "byteOffset": 0,
         "componentType": 5125,
         "count": 18588,
         "type": "SCALAR"
      },
      {
         "bufferView": 12,
         "byteOffset": 0,
         "componentType": 5126,
         "count": 1231,
         "max": [
            21.2195,
            -17.8929,
            1613.17
         ],
         "min": [
            -1.4584,
            -40.3493,
            1591.1
         ],
         "type": "VEC3"
      },
      {
         "bufferView": 13,
         "byteOffset": 0,
         "componentType": 5126,
         "count": 1231,
         "type": "VEC3"
      },
      {
         "bufferView": 14,
         "byteOffset": 0,
         "componentType": 5125,
         "count": 7386,
         "type": "SCALAR"
      },
      {
         "bufferView": 15,
         "byteOffset": 0,
         "componentType": 5126,
         "count": 1169,
         "max": [
            4.84449,
            -9.42357,
            1599.86
         ],
         "min": [
            -15.9618,
            -34.0083,
            1579.65
         ],
         "type": "VEC3"
      },
      {
         "bufferView": 16,
         "byteOffset": 0,
         "componentType": 5126,
         "count": 1169,
         "type": "VEC3"
      },
      {
         "bufferView": 17,
         "byteOffset": 0,
         "componentType": 5125,
         "count": 7014,
         "type": "SCALAR"
      },
      {
         "bufferView": 18,
         "byteOffset": 0,
         "componentType": 5126,
         "count": 210,
         "max": [
            28.0999,
            -12.883,
            1586.79
         ],
         "min": [
            16.3269,
            -40.4072,
            1566.85
         ],
         "type": "VEC3"
      },
      {
         "bufferView": 19,
         "byteOffset": 0,
         "componentType": 5126,
         "count": 210,
         "type": "VEC3"
      },
      {
         "bufferView": 20,
         "byteOffset": 0,
         "componentType": 5125,
         "count": 1167,
         "type": "SCALAR"
      }
   ],
   "asset": {
      "generator": "Slicer 5.4.0",
      "version": "2.0"
   },
   "bufferViews": [
      {
         "buffer": 0,
         "byteLength": 99060,
         "byteOffset": 0,
         "target": 34962
      },
      {
         "buffer": 1,
         "byteLength": 99060,
         "byteOffset": 0,
         "target": 34962
      },
      {
         "buffer": 2,
         "byteLength": 198816,
         "byteOffset": 0,
         "target": 34963
      },
      {
         "buffer": 3,
         "byteLength": 247716,
         "byteOffset": 0,
         "target": 34962
      },
      {
         "buffer": 4,
         "byteLength": 247716,
         "byteOffset": 0,
         "target": 34962
      },
      {
         "buffer": 5,
         "byteLength": 497304,
         "byteOffset": 0,
         "target": 34963
      },
      {
         "buffer": 6,
         "byteLength": 8508,
         "byteOffset": 0,
         "target": 34962
      },
      {
         "buffer": 7,
         "byteLength": 8508,
         "byteOffset": 0,
         "target": 34962
      },
      {
         "buffer": 8,
         "byteLength": 17016,
         "byteOffset": 0,
         "target": 34963
      },
      {
         "buffer": 9,
         "byteLength": 36936,
         "byteOffset": 0,
         "target": 34962
      },
      {
         "buffer": 10,
         "byteLength": 36936,
         "byteOffset": 0,
         "target": 34962
      },
      {
         "buffer": 11,
         "byteLength": 74352,
         "byteOffset": 0,
         "target": 34963
      },
      {
         "buffer": 12,
         "byteLength": 14772,
         "byteOffset": 0,
         "target": 34962
      },
      {
         "buffer": 13,
         "byteLength": 14772,
         "byteOffset": 0,
         "target": 34962
      },
      {
         "buffer": 14,
         "byteLength": 29544,
         "byteOffset": 0,
         "target": 34963
      },
      {
         "buffer": 15,
         "byteLength": 14028,
         "byteOffset": 0,
         "target": 34962
      },
      {
         "buffer": 16,
         "byteLength": 14028,
         "byteOffset": 0,
         "target": 34962
      },
      {
         "buffer": 17,
         "byteLength": 28056,
         "byteOffset": 0,
         "target": 34963
      },
      {
         "buffer": 18,
         "byteLength": 2520,
         "byteOffset": 0,
         "target": 34962
      },
      {
         "buffer": 19,
         "byteLength": 2520,
         "byteOffset": 0,
         "target": 34962
      },
      {
         "buffer": 20,
         "byteLength": 4668,
         "byteOffset": 0,
         "target": 34963
      }
   ],
   "buffers": [
      {
         "byteLength": 99060,
         "uri": "data:application/octet-stream;base64,"
      },
      {
         "byteLength": 99060,
         "uri": "data:application/octet-stream;base64,"
      },
      {
         "byteLength": 198816,
         "uri": "data:application/octet-stream;base64,"
      },
      {
         "byteLength": 247716,
         "uri": "data:application/octet-stream;base64,"
      },
      {
         "byteLength": 247716,
         "uri": "data:application/octet-stream;base64,"
      },
      {
         "byteLength": 497304,
         "uri": "data:application/octet-stream;base64,"
      },
      {
         "byteLength": 8508,
         "uri": "data:application/octet-stream;base64,"
      },
      {
         "byteLength": 8508,
         "uri": "data:application/octet-stream;base64,"
      },
      {
         "byteLength": 17016,
         "uri": "data:application/octet-stream;base64,"
      },
      {
         "byteLength": 36936,
         "uri": "data:application/octet-stream;base64,"
      },
      {
         "byteLength": 36936,
         "uri": "data:application/octet-stream;base64,"
      },
      {
         "byteLength": 74352,
         "uri": "data:application/octet-stream;base64,"
      },
      {
         "byteLength": 14772,
         "uri": "data:application/octet-stream;base64,"
      },
      {
         "byteLength": 14772,
         "uri": "data:application/octet-stream;base64,"
      },
      {
         "byteLength": 29544,
         "uri": "data:application/octet-stream;base64,"
      },
      {
         "byteLength": 14028,
         "uri": "data:application/octet-stream;base64,"
      },
      {
         "byteLength": 14028,
         "uri": "data:application/octet-stream;base64,"
      },
      {
         "byteLength": 28056,
         "uri": "data:application/octet-stream;base64,"
      },
      {
         "byteLength": 2520,
         "uri": "data:application/octet-stream;base64,"
      },
      {
         "byteLength": 2520,
         "uri": "data:application/octet-stream;base64,"
      },
      {
         "byteLength": 4668,
         "uri": "data:application/octet-stream;base64,"
      }
   ],
   "cameras": [
      {
         "perspective": {
            "aspectRatio": 1.0,
            "yfov": 0.5235987755982988,
            "zfar": 1000.01,
            "znear": 0.01
         },
         "type": "perspective"
      }
   ],
   "materials": [
      {
         "pbrMetallicRoughness": {
            "baseColorFactor": [
               0.741176,
               0.23382349144345424,
               0.0,
               1.0
            ],
            "metallicFactor": 0.0,
            "roughnessFactor": 1.0
         }
      },
      {
         "pbrMetallicRoughness": {
            "baseColorFactor": [
               0.0,
               0.22735855242937208,
               0.709804,
               1.0
            ],
            "metallicFactor": 0.0,
            "roughnessFactor": 1.0
         }
      },
      {
         "pbrMetallicRoughness": {
            "baseColorFactor": [
               0.046879698042158094,
               0.933333,
               0.0,
               1.0
            ],
            "metallicFactor": 0.0,
            "roughnessFactor": 1.0
         }
      },
      {
         "pbrMetallicRoughness": {
            "baseColorFactor": [
               0.02689029513327987,
               0.0,
               0.815686,
               1.0
            ],
            "metallicFactor": 0.0,
            "roughnessFactor": 1.0
         }
      },
      {
         "pbrMetallicRoughness": {
            "baseColorFactor": [
               0.702745029743457,
               0.0,
               0.878431,
               1.0
            ],
            "metallicFactor": 0.0,
            "roughnessFactor": 1.0
         }
      },
      {
         "pbrMetallicRoughness": {
            "baseColorFactor": [
               0.0,
               0.901961,
               0.750847430415743,
               1.0
            ],
            "metallicFactor": 0.0,
            "roughnessFactor": 1.0
         }
      },
      {
         "pbrMetallicRoughness": {
            "baseColorFactor": [
               1.0,
               0.2500114442664225,
               0.2500114442664225,
               1.0
            ],
            "metallicFactor": 0.0,
            "roughnessFactor": 1.0
         }
      }
   ],
   "meshes": [
      {
         "name": "left ventricle",
         "primitives": [
            {
               "attributes": {
                  "NORMAL": 1,
                  "POSITION": 0
               },
               "indices": 2,
               "material": 0,
               "mode": 4
            }
         ]
      },
      {
         "name": "right ventricle",
         "primitives": [
            {
               "attributes": {
                  "NORMAL": 4,
                  "POSITION": 3
               },
               "indices": 5,
               "material": 1,
               "mode": 4
            }
         ]
      },
      {
         "name": "vsd",
         "primitives": [
            {
               "attributes": {
                  "NORMAL": 7,
                  "POSITION": 6
               },
               "indices": 8,
               "material": 2,
               "mode": 4
            }
         ]
      },
      {
         "name": "tv",
         "primitives": [
            {
               "attributes": {
                  "NORMAL": 10,
                  "POSITION": 9
               },
               "indices": 11,
               "material": 3,
               "mode": 4
            }
         ]
      },
      {
         "name": "aov",
         "primitives": [
            {
               "attributes": {
                  "NORMAL": 13,
                  "POSITION": 12
               },
               "indices": 14,
               "material": 4,
               "mode": 4
            }
         ]
      },
      {
         "name": "pv",
         "primitives": [
            {
               "attributes": {
                  "NORMAL": 16,
                  "POSITION": 15
               },
               "indices": 17,
               "material": 5,
               "mode": 4
            }
         ]
      },
      {
         "name": "Baffle",
         "primitives": [
            {
               "attributes": {
                  "NORMAL": 19,
                  "POSITION": 18
               },
               "indices": 20,
               "material": 6,
               "mode": 4
            }
         ]
      }
   ],
   "nodes": [
      {
         "mesh": 0,
         "name": "left ventricle"
      },
      {
         "mesh": 1,
         "name": "right ventricle"
      },
      {
         "mesh": 2,
         "name": "vsd"
      },
      {
         "mesh": 3,
         "name": "tv"
      },
      {
         "mesh": 4,
         "name": "aov"
      },
      {
         "mesh": 5,
         "name": "pv"
      },
      {
         "mesh": 6,
         "name": "Baffle"
      },
      {
         "name": "{S,D,L} DORV, SubAoVSD 3",
         "children": [
            0,
            1,
            2,
            3,
            4,
            5,
            6
         ],
         "matrix": [
            1.0,
            0.0,
            0.0,
            0.0,
            0.0,
            0.0,
            -1.0,
            0.0,
            0.0,
            1.0,
            0.0,
            0.0,
            0.0,
            0.0,
            0.0,
            1.0
         ]
      }
   ],
   "scene": 0,
   "scenes": [
      {
         "name": "Layer 0",
         "nodes": [
            7
         ]
      }
   ]
}