{
   "accessors": [
      {
         "bufferView": 0,
         "byteOffset": 0,
         "componentType": 5126,
         "count": 6648,
         "max": [
            31.1235,
            33.7796,
            1318.18
         ],
         "min": [
            -6.2411,
            -36.5504,
            1197.07
         ],
         "type": "VEC3"
      },
      {
         "bufferView": 1,
         "byteOffset": 0,
         "componentType": 5126,
         "count": 6648,
         "type": "VEC3"
      },
      {
         "bufferView": 2,
         "byteOffset": 0,
         "componentType": 5125,
         "count": 39900,
         "type": "SCALAR"
      },
      {
         "bufferView": 3,
         "byteOffset": 0,
         "componentType": 5126,
         "count": 5364,
         "max": [
            40.3173,
            32.8832,
            1293.0
         ],
         "min": [
            -25.3817,
            -21.3037,
            1257.06
         ],
         "type": "VEC3"
      },
      {
         "bufferView": 4,
         "byteOffset": 0,
         "componentType": 5126,
         "count": 5364,
         "type": "VEC3"
      },
      {
         "bufferView": 5,
         "byteOffset": 0,
         "componentType": 5125,
         "count": 32208,
         "type": "SCALAR"
      },
      {
         "bufferView": 6,
         "byteOffset": 0,
         "componentType": 5126,
         "count": 475,
         "max": [
            30.525,
            -9.15239,
            1286.89
         ],
         "min": [
            9.60571,
            -29.3456,
            1265.02
         ],
         "type": "VEC3"
      },
      {
         "bufferView": 7,
         "byteOffset": 0,
         "componentType": 5126,
         "count": 475,
         "type": "VEC3"
      },
      {
         "bufferView": 8,
         "byteOffset": 0,
         "componentType": 5125,
         "count": 2850,
         "type": "SCALAR"
      },
      {
         "bufferView": 9,
         "byteOffset": 0,
         "componentType": 5126,
         "count": 399,
         "max": [
            16.0754,
            -3.33613,
            1271.72
         ],
         "min": [
            -5.61304,
            -22.1195,
            1255.79
         ],
         "type": "VEC3"
      },
      {
         "bufferView": 10,
         "byteOffset": 0,
         "componentType": 5126,
         "count": 399,
         "type": "VEC3"
      },
      {
         "bufferView": 11,
         "byteOffset": 0,
         "componentType": 5125,
         "count": 2394,
         "type": "SCALAR"
      },
      {
         "bufferView": 12,
         "byteOffset": 0,
         "componentType": 5126,
         "count": 11533,
         "max": [
            72.9202,
            35.4044,
            1282.64
         ],
         "min": [
            16.3443,
            -36.0799,
            1203.83
         ],
         "type": "VEC3"
      },
      {
         "bufferView": 13,
         "byteOffset": 0,
         "componentType": 5126,
         "count": 11533,
         "type": "VEC3"
      },
      {
         "bufferView": 14,
         "byteOffset": 0,
         "componentType": 5125,
         "count": 69102,
         "type": "SCALAR"
      },
      {
         "bufferView": 15,
         "byteOffset": 0,
         "componentType": 5126,
         "count": 14805,
         "max": [
            62.8146,
            7.68498,
            1265.86
         ],
         "min": [
            -7.77335,
            -45.028,
            1207.93
         ],
         "type": "VEC3"
      },
      {
         "bufferView": 16,
         "byteOffset": 0,
         "componentType": 5126,
         "count": 14805,
         "type": "VEC3"
      },
      {
         "bufferView": 17,
         "byteOffset": 0,
         "componentType": 5125,
         "count": 89574,
         "type": "SCALAR"
      },
      {
         "bufferView": 18,
         "byteOffset": 0,
         "componentType": 5126,
         "count": 341,
         "max": [
            47.7401,
            22.1717,
            1252.91
         ],
         "min": [
            28.2492,
            3.23818,
            1230.0
         ],
         "type": "VEC3"
      },
      {
         "bufferView": 19,
         "byteOffset": 0,
         "componentType": 5126,
         "count": 341,
         "type": "VEC3"
      },
      {
         "bufferView": 20,
         "byteOffset": 0,
         "componentType": 5125,
         "count": 2046,
         "type": "SCALAR"
      },
      {
         "bufferView": 21,
         "byteOffset": 0,
         "componentType": 5126,
         "count": 372,
         "max": [
            29.9341,
            4.94633,
            1253.95
         ],
         "min": [
            5.75884,
            -13.3321,
            1230.06
         ],
         "type": "VEC3"
      },
      {
         "bufferView": 22,
         "byteOffset": 0,
         "componentType": 5126,
         "count": 372,
         "type": "VEC3"
      },
      {
         "bufferView": 23,
         "byteOffset": 0,
         "componentType": 5125,
         "count": 2232,
         "type": "SCALAR"
      },
      {
         "bufferView": 24,
         "byteOffset": 0,
         "componentType": 5126,
         "count": 6068,
         "max": [
            63.9794,
            36.4195,
            1289.29
         ],
         "min": [
            -20.6923,
            0.0557836,
            1233.01
         ],
         "type": "VEC3"
      },
      {
         "bufferView": 25,
         "byteOffset": 0,
         "componentType": 5126,
         "count": 6068,
         "type": "VEC3"
      },
      {
         "bufferView": 26,
         "byteOffset": 0,
         "componentType": 5125,
         "count": 36456,
         "type": "SCALAR"
      },
      {
         "bufferView": 27,
         "byteOffset": 0,
         "componentType": 5126,
         "count": 10547,
         "max": [
            62.7809,
            26.9713,
            1317.12
         ],
         "min": [
            -15.7324,
            -11.2907,
            1223.25
         ],
         "type": "VEC3"
      },
      {
         "bufferView": 28,
         "byteOffset": 0,
         "componentType": 5126,
         "count": 10547,
         "type": "VEC3"
      },
      {
         "bufferView": 29,
         "byteOffset": 0,
         "componentType": 5125,
         "count": 63360,
         "type": "SCALAR"
      },
      {
         "bufferView": 30,
         "byteOffset": 0,
         "componentType": 5126,
         "count": 172,
         "max": [
            29.2581,
            11.9243,
            1261.8
         ],
         "min": [
            18.0816,
            6.8998,
            1247.08
         ],
         "type": "VEC3"
      },
      {
         "bufferView": 31,
         "byteOffset": 0,
         "componentType": 5126,
         "count": 172,
         "type": "VEC3"
      },
      {
         "bufferView": 32,
         "byteOffset": 0,
         "componentType": 5125,
         "count": 1032,
         "type": "SCALAR"
      }
   ],
   "asset": {
      "generator": "Slicer 5.4.0",
      "version": "2.0"
   },
   "bufferViews": [
      {
         "buffer": 0,
         "byteLength": 79776,
         "byteOffset": 0,
         "target": 34962
      },
      {
         "buffer": 1,
         "byteLength": 79776,
         "byteOffset": 0,
         "target": 34962
      },
      {
         "buffer": 2,
         "byteLength": 159600,
         "byteOffset": 0,
         "target": 34963
      },
      {
         "buffer": 3,
         "byteLength": 64368,
         "byteOffset": 0,
         "target": 34962
      },
      {
         "buffer": 4,
         "byteLength": 64368,
         "byteOffset": 0,
         "target": 34962
      },
      {
         "buffer": 5,
         "byteLength": 128832,
         "byteOffset": 0,
         "target": 34963
      },
      {
         "buffer": 6,
         "byteLength": 5700,
         "byteOffset": 0,
         "target": 34962
      },
      {
         "buffer": 7,
         "byteLength": 5700,
         "byteOffset": 0,
         "target": 34962
      },
      {
         "buffer": 8,
         "byteLength": 11400,
         "byteOffset": 0,
         "target": 34963
      },
      {
         "buffer": 9,
         "byteLength": 4788,
         "byteOffset": 0,
         "target": 34962
      },
      {
         "buffer": 10,
         "byteLength": 4788,
         "byteOffset": 0,
         "target": 34962
      },
      {
         "buffer": 11,
         "byteLength": 9576,
         "byteOffset": 0,
         "target": 34963
      },
      {
         "buffer": 12,
         "byteLength": 138396,
         "byteOffset": 0,
         "target": 34962
      },
      {
         "buffer": 13,
         "byteLength": 138396,
         "byteOffset": 0,
         "target": 34962
      },
      {
         "buffer": 14,
         "byteLength": 276408,
         "byteOffset": 0,
         "target": 34963
      },
      {
         "buffer": 15,
         "byteLength": 177660,
         "byteOffset": 0,
         "target": 34962
      },
      {
         "buffer": 16,
         "byteLength": 177660,
         "byteOffset": 0,
         "target": 34962
      },
      {
         "buffer": 17,
         "byteLength": 358296,
         "byteOffset": 0,
         "target": 34963
      },
      {
         "buffer": 18,
         "byteLength": 4092,
         "byteOffset": 0,
         "target": 34962
      },
      {
         "buffer": 19,
         "byteLength": 4092,
         "byteOffset": 0,
         "target": 34962
      },
      {
         "buffer": 20,
         "byteLength": 8184,
         "byteOffset": 0,
         "target": 34963
      },
      {
         "buffer": 21,
         "byteLength": 4464,
         "byteOffset": 0,
         "target": 34962
      },
      {
         "buffer": 22,
         "byteLength": 4464,
         "byteOffset": 0,
         "target": 34962
      },
      {
         "buffer": 23,
         "byteLength": 8928,
         "byteOffset": 0,
         "target": 34963
      },
      {
         "buffer": 24,
         "byteLength": 72816,
         "byteOffset": 0,
         "target": 34962
      },
      {
         "buffer": 25,
         "byteLength": 72816,
         "byteOffset": 0,
         "target": 34962
      },
      {
         "buffer": 26,
         "byteLength": 145824,
         "byteOffset": 0,
         "target": 34963
      },
      {
         "buffer": 27,
         "byteLength": 126564,
         "byteOffset": 0,
         "target": 34962
      },
      {
         "buffer": 28,
         "byteLength": 126564,
         "byteOffset": 0,
         "target": 34962
      },
      {
         "buffer": 29,
         "byteLength": 253440,
         "byteOffset": 0,
         "target": 34963
      },
      {
         "buffer": 30,
         "byteLength": 2064,
         "byteOffset": 0,
         "target": 34962
      },
      {
         "buffer": 31,
         "byteLength": 2064,
         "byteOffset": 0,
         "target": 34962
      },
      {
         "buffer": 32,
         "byteLength": 4128,
         "byteOffset": 0,
         "target": 34963
      }
   ],
   "buffers": [
      {
         "byteLength": 79776,
         "uri": "data:application/octet-stream;base64,"
      },
      {
         "byteLength": 79776,
         "uri": "data:application/octet-stream;base64,"
      },
      {
         "byteLength": 159600,
         "uri": "data:application/octet-stream;base64,"
      },
      {
         "byteLength": 64368,
         "uri": "data:application/octet-stream;base64,"
      },
      {
         "byteLength": 64368,
         "uri": "data:application/octet-stream;base64,"
      },
      {
         "byteLength": 128832,
         "uri": "data:application/octet-stream;base64,"
      },
      {
         "byteLength": 5700,
         "uri": "data:application/octet-stream;base64,"
      },
      {
         "byteLength": 5700,
         "uri": "data:application/octet-stream;base64,"
      },
      {
         "byteLength": 11400,
         "uri": "data:application/octet-stream;base64,"
      },
      {
         "byteLength": 4788,
         "uri": "data:application/octet-stream;base64,"
      },
      {
         "byteLength": 4788,
         "uri": "data:application/octet-stream;base64,"
      },
      {
         "byteLength": 9576,
         "uri": "data:application/octet-stream;base64,"
      },
      {
         "byteLength": 138396,
         "uri": "data:application/octet-stream;base64,"
      },
      {
         "byteLength": 138396,
         "uri": "data:application/octet-stream;base64,"
      },
      {
         "byteLength": 276408,
         "uri": "data:application/octet-stream;base64,"
      },
      {
         "byteLength": 177660,
         "uri": "data:application/octet-stream;base64,"
      },
      {
         "byteLength": 177660,
         "uri": "data:application/octet-stream;base64,"
      },
      {
         "byteLength": 358296,
         "uri": "data:application/octet-stream;base64,"
      },
      {
         "byteLength": 4092,
         "uri": "data:application/octet-stream;base64,"
      },
      {
         "byteLength": 4092,
         "uri": "data:application/octet-stream;base64,"
      },
      {
         "byteLength": 8184,
         "uri": "data:application/octet-stream;base64,"
      },
      {
         "byteLength": 4464,
         "uri": "data:application/octet-stream;base64,"
      },
      {
         "byteLength": 4464,
         "uri": "data:application/octet-stream;base64,"
      },
      {
         "byteLength": 8928,
         "uri": "data:application/octet-stream;base64,"
      },
      {
         "byteLength": 72816,
         "uri": "data:application/octet-stream;base64,"
      },
      {
         "byteLength": 72816,
         "uri": "data:application/octet-stream;base64,"
      },
      {
         "byteLength": 145824,
         "uri": "data:application/octet-stream;base64,"
      },
      {
         "byteLength": 126564,
         "uri": "data:application/octet-stream;base64,"
      },
      {
         "byteLength": 126564,
         "uri": "data:application/octet-stream;base64,"
      },
      {
         "byteLength": 253440,
         "uri": "data:application/octet-stream;base64,"
      },
      {
         "byteLength": 2064,
         "uri": "data:application/octet-stream;base64,"
      },
      {
         "byteLength": 2064,
         "uri": "data:application/octet-stream;base64,"
      },
      {
         "byteLength": 4128,
         "uri": "data:application/octet-stream;base64,"
      }
   ],
   "cameras": [
      {
         "perspective": {
            "aspectRatio": 1.0,
            "yfov": 0.5235987755982988,
            "zfar": 1000.01,
            "znear": 0.01
         },
         "type": "perspective"
      }
   ],
   "materials": [
      {
         "pbrMetallicRoughness": {
            "baseColorFactor": [
               0.6666666666666666,
               0.10222222222222227,
               0.0,
               1.0
            ],
            "metallicFactor": 0.0,
            "roughnessFactor": 1.0
         }
      },
      {
         "pbrMetallicRoughness": {
            "baseColorFactor": [
               0.0,
               0.5568627450980392,
               0.7607843137254902,
               1.0
            ],
            "metallicFactor": 0.0,
            "roughnessFactor": 1.0
         }
      },
      {
         "pbrMetallicRoughness": {
            "baseColorFactor": [
               0.7027450980392155,
               0.0,
               0.8784313725490196,
               1.0
            ],
            "metallicFactor": 0.0,
            "roughnessFactor": 1.0
         }
      },
      {
         "pbrMetallicRoughness": {
            "baseColorFactor": [
               0.0,
               0.9019607843137255,
               0.7508469356328916,
               1.0
            ],
            "metallicFactor": 0.0,
            "roughnessFactor": 1.0
         }
      },
      {
         "pbrMetallicRoughness": {
            "baseColorFactor": [
               0.7411764705882353,
               0.23382352941176474,
               0.0,
               1.0
            ],
            "metallicFactor": 0.0,
            "roughnessFactor": 1.0
         }
      },
      {
         "pbrMetallicRoughness": {
            "baseColorFactor": [
               0.0,
               0.22735906862745084,
               0.7098039215686275,
               1.0
            ],
            "metallicFactor": 0.0,
            "roughnessFactor": 1.0
         }
      },
      {
         "pbrMetallicRoughness": {
            "baseColorFactor": [
               0.8156862745098039,
               0.0,
               0.016905415015747473,
               1.0
            ],
            "metallicFactor": 0.0,
            "roughnessFactor": 1.0
         }
      },
      {
         "pbrMetallicRoughness": {
            "baseColorFactor": [
               0.026890756302520913,
               0.0,
               0.8156862745098039,
               1.0
            ],
            "metallicFactor": 0.0,
            "roughnessFactor": 1.0
         }
      },
      {
         "pbrMetallicRoughness": {
            "baseColorFactor": [
               0.796078431372549,
               0.0,
               0.7326229042341574,
               1.0
            ],
            "metallicFactor": 0.0,
            "roughnessFactor": 1.0
         }
      },
      {
         "pbrMetallicRoughness": {
            "baseColorFactor": [
               0.07058823529411758,
               0.5352941176470589,
               0.8235294117647058,
               1.0
            ],
            "metallicFactor": 0.0,
            "roughnessFactor": 1.0
         }
      },
      {
         "pbrMetallicRoughness": {
            "baseColorFactor": [
               0.8980392156862745,
               0.8980392156862745,
               0.0,
               1.0
            ],
            "metallicFactor": 0.0,
            "roughnessFactor": 1.0
         }
      }
   ],
   "meshes": [
      {
         "name": "aorta",
         "primitives": [
            {
               "attributes": {
                  "NORMAL": 1,
                  "POSITION": 0
               },
               "indices": 2,
               "material": 0,
               "mode": 4
            }
         ]
      },
      {
         "name": "pulmonary artery",
         "primitives": [
            {
               "attributes": {
                  "NORMAL": 4,
                  "POSITION": 3
               },
               "indices": 5,
               "material": 1,
               "mode": 4
            }
         ]
      },
      {
         "name": "aov",
         "primitives": [
            {
               "attributes": {
                  "NORMAL": 7,
                  "POSITION": 6
               },
               "indices": 8,
               "material": 2,
               "mode": 4
            }
         ]
      },
      {
         "name": "pv",
         "primitives": [
            {
               "attributes": {
                  "NORMAL": 10,
                  "POSITION": 9
               },
               "indices": 11,
               "material": 3,
               "mode": 4
            }
         ]
      },
      {
         "name": "left ventricle",
         "primitives": [
            {
               "attributes": {
                  "NORMAL": 13,
                  "POSITION": 12
               },
               "indices": 14,
               "material": 4,
               "mode": 4
            }
         ]
      },
      {
         "name": "right ventricle",
         "primitives": [
            {
               "attributes": {
                  "NORMAL": 16,
                  "POSITION": 15
               },
               "indices": 17,
               "material": 5,
               "mode": 4
            }
         ]
      },
      {
         "name": "mv",
         "primitives": [
            {
               "attributes": {
                  "NORMAL": 19,
                  "POSITION": 18
               },
               "indices": 20,
               "material": 6,
               "mode": 4
            }
         ]
      },
      {
         "name": "tv",
         "primitives": [
            {
               "attributes": {
                  "NORMAL": 22,
                  "POSITION": 21
               },
               "indices": 23,
               "material": 7,
               "mode": 4
            }
         ]
      },
      {
         "name": "left atrium",
         "primitives": [
            {
               "attributes": {
                  "NORMAL": 25,
                  "POSITION": 24
               },
               "indices": 26,
               "material": 8,
               "mode": 4
            }
         ]
      },
      {
         "name": "right atrium",
         "primitives": [
            {
               "attributes": {
                  "NORMAL": 28,
                  "POSITION": 27
               },
               "indices": 29,
               "material": 9,
               "mode": 4
            }
         ]
      },
      {
         "name": "asd",
         "primitives": [
            {
               "attributes": {
                  "NORMAL": 31,
                  "POSITION": 30
               },
               "indices": 32,
               "material": 10,
               "mode": 4
            }
         ]
      }
   ],
   "nodes": [
      {
         "mesh": 0,
         "name": "aorta"
      },
      {
         "mesh": 1,
         "name": "pulmonary artery"
      },
      {
         "mesh": 2,
         "name": "aov"
      },
      {
         "mesh": 3,
         "name": "pv"
      },
      {
         "mesh": 4,
         "name": "left ventricle"
      },
      {
         "mesh": 5,
         "name": "right ventricle"
      },
      {
         "mesh": 6,
         "name": "mv"
      },
      {
         "mesh": 7,
         "name": "tv"
      },
      {
         "mesh": 8,
         "name": "left atrium"
      },
      {
         "mesh": 9,
         "name": "right atrium"
      },
      {
         "mesh": 10,
         "name": "asd"
      },
      {
         "name": "{S,D,L} DORV, SubAoVSD postop-models",
         "children": [
            0,
            1,
            2,
            3,
            4,
            5,
            6,
            7,
            8,
            9,
            10
         ],
         "matrix": [
            1.0,
            0.0,
            0.0,
            0.0,
            0.0,
            0.0,
            -1.0,
            0.0,
            0.0,
            1.0,
            0.0,
            0.0,
            0.0,
            0.0,
            0.0,
            1.0
         ]
      }
   ],
   "scene": 0,
   "scenes": [
      {
         "name": "Layer 0",
         "nodes": [
            11
         ]
      }
   ]
}