{
   "accessors": [
      {
         "bufferView": 0,
         "byteOffset": 0,
         "componentType": 5126,
         "count": 11377,
         "max": [
            34.0189,
            51.078,
            1287.7
         ],
         "min": [
            -18.7584,
            19.0127,
            1207.91
         ],
         "type": "VEC3"
      },
      {
         "bufferView": 1,
         "byteOffset": 0,
         "componentType": 5126,
         "count": 11377,
         "type": "VEC3"
      },
      {
         "bufferView": 2,
         "byteOffset": 0,
         "componentType": 5125,
         "count": 68022,
         "type": "SCALAR"
      },
      {
         "bufferView": 3,
         "byteOffset": 0,
         "componentType": 5126,
         "count": 4568,
         "max": [
            21.8562,
            49.8764,
            1292.63
         ],
         "min": [
            -3.43229,
            23.3469,
            1207.83
         ],
         "type": "VEC3"
      },
      {
         "bufferView": 4,
         "byteOffset": 0,
         "componentType": 5126,
         "count": 4568,
         "type": "VEC3"
      },
      {
         "bufferView": 5,
         "byteOffset": 0,
         "componentType": 5125,
         "count": 27246,
         "type": "SCALAR"
      },
      {
         "bufferView": 6,
         "byteOffset": 0,
         "componentType": 5126,
         "count": 10187,
         "max": [
            29.9916,
            39.115,
            1273.1
         ],
         "min": [
            -4.47682,
            10.2318,
            1242.02
         ],
         "type": "VEC3"
      },
      {
         "bufferView": 7,
         "byteOffset": 0,
         "componentType": 5126,
         "count": 10187,
         "type": "VEC3"
      },
      {
         "bufferView": 8,
         "byteOffset": 0,
         "componentType": 5125,
         "count": 61386,
         "type": "SCALAR"
      },
      {
         "bufferView": 9,
         "byteOffset": 0,
         "componentType": 5126,
         "count": 3991,
         "max": [
            30.5423,
            47.9799,
            1278.54
         ],
         "min": [
            -15.4238,
            17.6885,
            1253.04
         ],
         "type": "VEC3"
      },
      {
         "bufferView": 10,
         "byteOffset": 0,
         "componentType": 5126,
         "count": 3991,
         "type": "VEC3"
      },
      {
         "bufferView": 11,
         "byteOffset": 0,
         "componentType": 5125,
         "count": 23844,
         "type": "SCALAR"
      },
      {
         "bufferView": 12,
         "byteOffset": 0,
         "componentType": 5126,
         "count": 422,
         "max": [
            19.9626,
            26.1594,
            1274.55
         ],
         "min": [
            8.57603,
            16.9409,
            1265.51
         ],
         "type": "VEC3"
      },
      {
         "bufferView": 13,
         "byteOffset": 0,
         "componentType": 5126,
         "count": 422,
         "type": "VEC3"
      },
      {
         "bufferView": 14,
         "byteOffset": 0,
         "componentType": 5125,
         "count": 2532,
         "type": "SCALAR"
      },
      {
         "bufferView": 15,
         "byteOffset": 0,
         "componentType": 5126,
         "count": 343,
         "max": [
            14.5665,
            31.4761,
            1268.39
         ],
         "min": [
            4.91828,
            23.2299,
            1258.96
         ],
         "type": "VEC3"
      },
      {
         "bufferView": 16,
         "byteOffset": 0,
         "componentType": 5126,
         "count": 343,
         "type": "VEC3"
      },
      {
         "bufferView": 17,
         "byteOffset": 0,
         "componentType": 5125,
         "count": 2046,
         "type": "SCALAR"
      },
      {
         "bufferView": 18,
         "byteOffset": 0,
         "componentType": 5126,
         "count": 355,
         "max": [
            16.767,
            36.479,
            1262.23
         ],
         "min": [
            7.59208,
            27.3194,
            1250.92
         ],
         "type": "VEC3"
      },
      {
         "bufferView": 19,
         "byteOffset": 0,
         "componentType": 5126,
         "count": 355,
         "type": "VEC3"
      },
      {
         "bufferView": 20,
         "byteOffset": 0,
         "componentType": 5125,
         "count": 2130,
         "type": "SCALAR"
      },
      {
         "bufferView": 21,
         "byteOffset": 0,
         "componentType": 5126,
         "count": 551,
         "max": [
            11.3123,
            25.6011,
            1263.45
         ],
         "min": [
            -0.977957,
            13.0964,
            1247.06
         ],
         "type": "VEC3"
      },
      {
         "bufferView": 22,
         "byteOffset": 0,
         "componentType": 5126,
         "count": 551,
         "type": "VEC3"
      },
      {
         "bufferView": 23,
         "byteOffset": 0,
         "componentType": 5125,
         "count": 3306,
         "type": "SCALAR"
      },
      {
         "bufferView": 24,
         "byteOffset": 0,
         "componentType": 5126,
         "count": 7669,
         "max": [
            30.1843,
            37.6369,
            1270.89
         ],
         "min": [
            -8.19068,
            7.11666,
            1246.08
         ],
         "type": "VEC3"
      },
      {
         "bufferView": 25,
         "byteOffset": 0,
         "componentType": 5126,
         "count": 7669,
         "type": "VEC3"
      },
      {
         "bufferView": 26,
         "byteOffset": 0,
         "componentType": 5125,
         "count": 46224,
         "type": "SCALAR"
      },
      {
         "bufferView": 27,
         "byteOffset": 0,
         "componentType": 5126,
         "count": 213,
         "max": [
            8.24249,
            35.2387,
            1259.36
         ],
         "min": [
            3.01178,
            27.7141,
            1249.71
         ],
         "type": "VEC3"
      },
      {
         "bufferView": 28,
         "byteOffset": 0,
         "componentType": 5126,
         "count": 213,
         "type": "VEC3"
      },
      {
         "bufferView": 29,
         "byteOffset": 0,
         "componentType": 5125,
         "count": 1266,
         "type": "SCALAR"
      }
   ],
   "asset": {
      "generator": "Slicer 5.4.0",
      "version": "2.0"
   },
   "bufferViews": [
      {
         "buffer": 0,
         "byteLength": 136524,
         "byteOffset": 0,
         "target": 34962
      },
      {
         "buffer": 1,
         "byteLength": 136524,
         "byteOffset": 0,
         "target": 34962
      },
      {
         "buffer": 2,
         "byteLength": 272088,
         "byteOffset": 0,
         "target": 34963
      },
      {
         "buffer": 3,
         "byteLength": 54816,
         "byteOffset": 0,
         "target": 34962
      },
      {
         "buffer": 4,
         "byteLength": 54816,
         "byteOffset": 0,
         "target": 34962
      },
      {
         "buffer": 5,
         "byteLength": 108984,
         "byteOffset": 0,
         "target": 34963
      },
      {
         "buffer": 6,
         "byteLength": 122244,
         "byteOffset": 0,
         "target": 34962
      },
      {
         "buffer": 7,
         "byteLength": 122244,
         "byteOffset": 0,
         "target": 34962
      },
      {
         "buffer": 8,
         "byteLength": 245544,
         "byteOffset": 0,
         "target": 34963
      },
      {
         "buffer": 9,
         "byteLength": 47892,
         "byteOffset": 0,
         "target": 34962
      },
      {
         "buffer": 10,
         "byteLength": 47892,
         "byteOffset": 0,
         "target": 34962
      },
      {
         "buffer": 11,
         "byteLength": 95376,
         "byteOffset": 0,
         "target": 34963
      },
      {
         "buffer": 12,
         "byteLength": 5064,
         "byteOffset": 0,
         "target": 34962
      },
      {
         "buffer": 13,
         "byteLength": 5064,
         "byteOffset": 0,
         "target": 34962
      },
      {
         "buffer": 14,
         "byteLength": 10128,
         "byteOffset": 0,
         "target": 34963
      },
      {
         "buffer": 15,
         "byteLength": 4116,
         "byteOffset": 0,
         "target": 34962
      },
      {
         "buffer": 16,
         "byteLength": 4116,
         "byteOffset": 0,
         "target": 34962
      },
      {
         "buffer": 17,
         "byteLength": 8184,
         "byteOffset": 0,
         "target": 34963
      },
      {
         "buffer": 18,
         "byteLength": 4260,
         "byteOffset": 0,
         "target": 34962
      },
      {
         "buffer": 19,
         "byteLength": 4260,
         "byteOffset": 0,
         "target": 34962
      },
      {
         "buffer": 20,
         "byteLength": 8520,
         "byteOffset": 0,
         "target": 34963
      },
      {
         "buffer": 21,
         "byteLength": 6612,
         "byteOffset": 0,
         "target": 34962
      },
      {
         "buffer": 22,
         "byteLength": 6612,
         "byteOffset": 0,
         "target": 34962
      },
      {
         "buffer": 23,
         "byteLength": 13224,
         "byteOffset": 0,
         "target": 34963
      },
      {
         "buffer": 24,
         "byteLength": 92028,
         "byteOffset": 0,
         "target": 34962
      },
      {
         "buffer": 25,
         "byteLength": 92028,
         "byteOffset": 0,
         "target": 34962
      },
      {
         "buffer": 26,
         "byteLength": 184896,
         "byteOffset": 0,
         "target": 34963
      },
      {
         "buffer": 27,
         "byteLength": 2556,
         "byteOffset": 0,
         "target": 34962
      },
      {
         "buffer": 28,
         "byteLength": 2556,
         "byteOffset": 0,
         "target": 34962
      },
      {
         "buffer": 29,
         "byteLength": 5064,
         "byteOffset": 0,
         "target": 34963
      }
   ],
   "buffers": [
      {
         "byteLength": 136524,
         "uri": "data:application/octet-stream;base64,"
      },
      {
         "byteLength": 136524,
         "uri": "data:application/octet-stream;base64,"
      },
      {
         "byteLength": 272088,
         "uri": "data:application/octet-stream;base64,"
      },
      {
         "byteLength": 54816,
         "uri": "data:application/octet-stream;base64,"
      },
      {
         "byteLength": 54816,
         "uri": "data:application/octet-stream;base64,"
      },
      {
         "byteLength": 108984,
         "uri": "data:application/octet-stream;base64,"
      },
      {
         "byteLength": 122244,
         "uri": "data:application/octet-stream;base64,"
      },
      {
         "byteLength": 122244,
         "uri": "data:application/octet-stream;base64,"
      },
      {
         "byteLength": 245544,
         "uri": "data:application/octet-stream;base64,"
      },
      {
         "byteLength": 47892,
         "uri": "data:application/octet-stream;base64,"
      },
      {
         "byteLength": 47892,
         "uri": "data:application/octet-stream;base64,"
      },
      {
         "byteLength": 95376,
         "uri": "data:application/octet-stream;base64,"
      },
      {
         "byteLength": 5064,
         "uri": "data:application/octet-stream;base64,"
      },
      {
         "byteLength": 5064,
         "uri": "data:application/octet-stream;base64,"
      },
      {
         "byteLength": 10128,
         "uri": "data:application/octet-stream;base64,"
      },
      {
         "byteLength": 4116,
         "uri": "data:application/octet-stream;base64,"
      },
      {
         "byteLength": 4116,
         "uri": "data:application/octet-stream;base64,"
      },
      {
         "byteLength": 8184,
         "uri": "data:application/octet-stream;base64,"
      },
      {
         "byteLength": 4260,
         "uri": "data:application/octet-stream;base64,"
      },
      {
         "byteLength": 4260,
         "uri": "data:application/octet-stream;base64,"
      },
      {
         "byteLength": 8520,
         "uri": "data:application/octet-stream;base64,"
      },
      {
         "byteLength": 6612,
         "uri": "data:application/octet-stream;base64,"
      },
      {
         "byteLength": 6612,
         "uri": "data:application/octet-stream;base64,"
      },
      {
         "byteLength": 13224,
         "uri": "data:application/octet-stream;base64,"
      },
      {
         "byteLength": 92028,
         "uri": "data:application/octet-stream;base64,"
      },
      {
         "byteLength": 92028,
         "uri": "data:application/octet-stream;base64,"
      },
      {
         "byteLength": 184896,
         "uri": "data:application/octet-stream;base64,"
      },
      {
         "byteLength": 2556,
         "uri": "data:application/octet-stream;base64,"
      },
      {
         "byteLength": 2556,
         "uri": "data:application/octet-stream;base64,"
      },
      {
         "byteLength": 5064,
         "uri": "data:application/octet-stream;base64,"
      }
   ],
   "cameras": [
      {
         "perspective": {
            "aspectRatio": 1.0,
            "yfov": 0.5235987755982988,
            "zfar": 1000.01,
            "znear": 0.01
         },
         "type": "perspective"
      }
   ],
   "materials": [
      {
         "pbrMetallicRoughness": {
            "baseColorFactor": [
               0.692156862745098,
               0.580392156862745,
               0.9215686274509803,
               1.0
            ],
            "metallicFactor": 0.0,
            "roughnessFactor": 1.0
         }
      },
      {
         "pbrMetallicRoughness": {
            "baseColorFactor": [
               0.847059,
               0.17058749999999986,
               0.0411764999999999,
               1.0
            ],
            "metallicFactor": 0.0,
            "roughnessFactor": 1.0
         }
      },
      {
         "pbrMetallicRoughness": {
            "baseColorFactor": [
               0.878431,
               0.6843145,
               0.696079,
               1.0
            ],
            "metallicFactor": 0.0,
            "roughnessFactor": 1.0
         }
      },
      {
         "pbrMetallicRoughness": {
            "baseColorFactor": [
               0.0,
               0.5921568627450982,
               0.807843137254902,
               1.0
            ],
            "metallicFactor": 0.0,
            "roughnessFactor": 1.0
         }
      },
      {
         "pbrMetallicRoughness": {
            "baseColorFactor": [
               0.0,
               1.0,
               0.7176470588235292,
               1.0
            ],
            "metallicFactor": 0.0,
            "roughnessFactor": 1.0
         }
      },
      {
         "pbrMetallicRoughness": {
            "baseColorFactor": [
               0.7683444511825348,
               0.0,
               0.8235294117647058,
               1.0
            ],
            "metallicFactor": 0.0,
            "roughnessFactor": 1.0
         }
      },
      {
         "pbrMetallicRoughness": {
            "baseColorFactor": [
               0.8470588235294118,
               0.0,
               0.013235294117646871,
               1.0
            ],
            "metallicFactor": 0.0,
            "roughnessFactor": 1.0
         }
      },
      {
         "pbrMetallicRoughness": {
            "baseColorFactor": [
               0.05918699186991856,
               0.0,
               0.8666666666666667,
               1.0
            ],
            "metallicFactor": 0.0,
            "roughnessFactor": 1.0
         }
      },
      {
         "pbrMetallicRoughness": {
            "baseColorFactor": [
               0.9333333333333333,
               0.6745098039215686,
               0.680392156862745,
               1.0
            ],
            "metallicFactor": 0.0,
            "roughnessFactor": 1.0
         }
      },
      {
         "pbrMetallicRoughness": {
            "baseColorFactor": [
               0.8470588235294118,
               0.5647058823529412,
               0.0,
               1.0
            ],
            "metallicFactor": 0.0,
            "roughnessFactor": 1.0
         }
      }
   ],
   "meshes": [
      {
         "name": "pv pathway",
         "primitives": [
            {
               "attributes": {
                  "NORMAL": 1,
                  "POSITION": 0
               },
               "indices": 2,
               "material": 0,
               "mode": 4
            }
         ]
      },
      {
         "name": "aorta",
         "primitives": [
            {
               "attributes": {
                  "NORMAL": 4,
                  "POSITION": 3
               },
               "indices": 5,
               "material": 1,
               "mode": 4
            }
         ]
      },
      {
         "name": "heart",
         "primitives": [
            {
               "attributes": {
                  "NORMAL": 7,
                  "POSITION": 6
               },
               "indices": 8,
               "material": 2,
               "mode": 4
            }
         ]
      },
      {
         "name": "pa",
         "primitives": [
            {
               "attributes": {
                  "NORMAL": 10,
                  "POSITION": 9
               },
               "indices": 11,
               "material": 3,
               "mode": 4
            }
         ]
      },
      {
         "name": "pv",
         "primitives": [
            {
               "attributes": {
                  "NORMAL": 13,
                  "POSITION": 12
               },
               "indices": 14,
               "material": 4,
               "mode": 4
            }
         ]
      },
      {
         "name": "aov",
         "primitives": [
            {
               "attributes": {
                  "NORMAL": 16,
                  "POSITION": 15
               },
               "indices": 17,
               "material": 5,
               "mode": 4
            }
         ]
      },
      {
         "name": "mv",
         "primitives": [
            {
               "attributes": {
                  "NORMAL": 19,
                  "POSITION": 18
               },
               "indices": 20,
               "material": 6,
               "mode": 4
            }
         ]
      },
      {
         "name": "tv",
         "primitives": [
            {
               "attributes": {
                  "NORMAL": 22,
                  "POSITION": 21
               },
               "indices": 23,
               "material": 7,
               "mode": 4
            }
         ]
      },
      {
         "name": "resected",
         "primitives": [
            {
               "attributes": {
                  "NORMAL": 25,
                  "POSITION": 24
               },
               "indices": 26,
               "material": 8,
               "mode": 4
            }
         ]
      },
      {
         "name": "asd",
         "primitives": [
            {
               "attributes": {
                  "NORMAL": 28,
                  "POSITION": 27
               },
               "indices": 29,
               "material": 9,
               "mode": 4
            }
         ]
      }
   ],
   "nodes": [
      {
         "mesh": 0,
         "name": "pv pathway"
      },
      {
         "mesh": 1,
         "name": "aorta"
      },
      {
         "mesh": 2,
         "name": "heart"
      },
      {
         "mesh": 3,
         "name": "pa"
      },
      {
         "mesh": 4,
         "name": "pv"
      },
      {
         "mesh": 5,
         "name": "aov"
      },
      {
         "mesh": 6,
         "name": "mv"
      },
      {
         "mesh": 7,
         "name": "tv"
      },
      {
         "mesh": 8,
         "name": "resected"
      },
      {
         "mesh": 9,
         "name": "asd"
      },
      {
         "name": "Mixed TAPVC",
         "children": [
            0,
            1,
            2,
            3,
            4,
            5,
            6,
            7,
            8,
            9
         ],
         "matrix": [
            1.0,
            0.0,
            0.0,
            0.0,
            0.0,
            0.0,
            -1.0,
            0.0,
            0.0,
            1.0,
            0.0,
            0.0,
            0.0,
            0.0,
            0.0,
            1.0
         ]
      }
   ],
   "scene": 0,
   "scenes": [
      {
         "name": "Layer 0",
         "nodes": [
            10
         ]
      }
   ]
}